<?xml version="1.0" encoding="utf-8"?>
<!-- Generator: Adobe Illustrator 19.1.0, SVG Export Plug-In . SVG Version: 6.00 Build 0)  -->
<svg version="1.1" id="Stiftelsen" xmlns="http://www.w3.org/2000/svg" xmlns:xlink="http://www.w3.org/1999/xlink" x="0px" y="0px"
	 viewBox="0 0 448.3 130.8" style="enable-background:new 0 0 448.3 130.8;" xml:space="preserve" preserveAspectRatio="xMinyMin meet">
<style type="text/css">
	.st0{fill:#002F87;}
	.st1{fill:#FFFFFF;}
	.st2{fill:#58595B;}
</style>
<g>
	<g>
		<path id="HJerte_1_" class="st0" d="M124.7,48c-1.5-6.6-13.9-48-37.2-48C75.7,0,66.7,8.4,60.1,18.4c8.4,7.5,15.5,16.2,21.8,25.4
			c2.2,3.1,4.1,6.4,5.1,10.1c1.4,5.3,2.2,16,3.9,21.5c0.4,1.3,1.2,1.8,2.8,1.7c0,0,2.7-0.3,4-0.7c1.2-0.4,2.4-0.8,3.6-1.2
			c1.1-0.4,2.2-0.8,3.3-1.1c1.9-0.6,3.9-1.2,6-1.2c2.6,0.1,4.6,0.9,5.7,2.7c0.4,0.6,1,1.8,1.4,2.5c0.3,0.6,0.5,0.9,0.6,1.1
			c0,0.1,0.1,0.2,0.2,0.3c0.1,0.2,0.4,0.7,0.5,0.8c0.4,0.4,0.9,0.8,1.1,1.5c0.1,0.4,0.2,0.7,0.1,1.1c0,0.4-0.3,0.4-0.4,0.4
			c-0.1,0-0.2,0-0.3-0.1c-0.4-0.3-2.9-1.1-3.2-1.1c-0.4-0.1-0.9-0.2-1.4-0.2c-1.2,0-2.5,0.4-3.5,0.8c-2.1,0.8-4,2-5.8,3.2l-0.7,0.4
			c-0.5,0.3-1,0.7-1.4,1.1c-1,1-2,2.2-2.8,3c-0.6,0.7-1.3,1.3-2,1.9l-0.3,0.2c-0.6,0.5-1.1,1.1-1.6,1.6l-0.4,0.4
			c-1.5,1.5-3,2.6-4.6,3.5c-0.4,0.2-0.7,0.4-1,0.6c-0.6,0.3-1.1,0.7-1.7,1c-1,0.5-2.4,1.1-3.8,1.5c-1,0.3-2.1,0.5-3.3,0.7
			c-0.3,0-3,0.4-6.5,0.8c-5.6,0.7-14.2,1.8-14.5,1.9l-0.3,0.1c-0.4,0.1-0.8,0.2-1.1,0.4c0,0-0.1,0-0.1,0l-0.1,0.1l0,0
			c-9.4,4.6-18.6,8.5-26.8,9.2c-0.4,0-0.7-0.3-0.7-0.7c0.7-12.6,3.6-21.4,12-26.9c0.3-0.2,0.7-0.2,1,0c3.6,2.3,9.3,3.3,15.3,4.1
			c0.2,0,0.4,0,0.6-0.1c2.4-1.7,6.1-3.5,9.1-5c0,0-4.9-1.5-5.9-6.8c-4.9-25.8-10.7-38.3-13-42.7c-3.2,8-4.8,14.2-4.8,14.2l0,0
			c0,0-49,17.7-46,46.5c2.4,23.1,44.9,31.2,51.6,32c36.4,4.2,74.3-6.5,74.3-6.5l0.1-0.1C126.1,122.5,132.7,83.7,124.7,48z"/>
		<g>
			<path class="st1" d="M120.1,82.8c0,0.4-0.3,0.4-0.4,0.4c-0.1,0-0.2,0-0.3-0.1c-0.4-0.3-2.9-1.1-3.2-1.1c-0.4-0.1-0.9-0.2-1.4-0.2
				c-1.2,0-2.5,0.4-3.5,0.8c-2.1,0.8-4,2-5.8,3.2l-0.7,0.4c-0.5,0.3-1,0.7-1.4,1.1c-1,1-2,2.2-2.8,3c-0.6,0.7-1.3,1.3-2,1.9
				l-0.3,0.2c-0.6,0.5-1.1,1.1-1.6,1.6l-0.4,0.4c-1.5,1.5-3,2.6-4.6,3.5c-0.4,0.2-0.7,0.4-1,0.6c-0.6,0.3-1.1,0.7-1.7,1
				c-1,0.5-2.4,1.1-3.8,1.5c-1,0.3-2.1,0.5-3.3,0.7c-0.3,0-3,0.4-6.5,0.8c-5.6,0.7-14.2,1.8-14.5,1.9l-0.3,0.1
				c-0.4,0.1-0.8,0.2-1.1,0.4c0,0-0.1,0-0.1,0l-0.1,0.1l0,0c-9.4,4.6-18.6,8.5-26.8,9.2c-0.4,0-0.7-0.3-0.7-0.7
				c0.7-12.6,3.6-21.4,12-26.9c0.3-0.2,0.7-0.2,1,0c3.6,2.3,9.3,3.3,15.3,4.1c0.2,0,0.4,0,0.6-0.1c2.4-1.7,6.1-3.5,9.1-5
				c0,0-4.9-1.5-5.9-6.8c-5-26.3-10.7-38.6-13-42.7c2.2-5.6,5.3-12,9.2-18c8.5,7.5,15.4,16.2,21.8,25.4c2.2,3.1,4.1,6.4,5.1,10.1
				c1.4,5.3,2.2,16,3.9,21.5c0.4,1.3,1.2,1.8,2.8,1.7c0,0,2.7-0.3,4-0.7c1.2-0.4,2.4-0.8,3.6-1.2c1.1-0.4,2.2-0.8,3.3-1.1
				c1.9-0.6,3.9-1.2,6-1.2c2.6,0.1,4.6,0.9,5.7,2.7c0.4,0.6,1,1.8,1.4,2.5c0.3,0.6,0.5,0.9,0.6,1.1c0,0.1,0.1,0.2,0.2,0.3
				c0.1,0.2,0.4,0.7,0.5,0.8c0.4,0.4,0.9,0.8,1.1,1.5C120,82.1,120.1,82.4,120.1,82.8z"/>
			<g>
				<path class="st1" d="M122.6,96.7C122.8,97,122.3,95.8,122.6,96.7L122.6,96.7z"/>
				<path class="st1" d="M122.6,96.7c-0.3-0.8-1.1-1.3-2-1.3c-0.5,0-1.4,0.1-1.7,0.5c0.7-3.5,0.9-7.2,0.2-11.1
					c0-0.2-0.2-0.4-0.4-0.5l-0.9-0.5c-0.3-0.1-0.5-0.1-0.7,0.1c-0.1,0.1-0.1,0.2-0.1,0.2c0.6,3.7,0.7,7.1,0.4,10.1
					c-0.1-0.2-0.1-0.5-0.2-0.7c-0.3-0.8-1.1-1.9-2.6-2.3c-0.2-0.1-1.3-0.5-2.9-0.4c-1.3,0.1-2.6,0.4-3.8,1c-0.4,0.2-1.2,0.6-1.1,1.3
					c0.1,0.3,1.5,0.7,2.1,0.7c3.1-0.1,4.2,0.3,5.9,1.4c1,0.6,2.3,0.6,2.3,0.6c-0.4,1.8-1,4.1-1.7,5.8c-0.1-0.6-0.4-1.4-1-2.1
					c-1-1.1-2.5-1.7-4.1-1.5c-0.4,0-4.1,0.2-7,3.4c-0.6,0.6-1.2,1.6-1,2.1c0.1,0.1,0.4,0.2,1.1,0.1c0.5-0.1,1.4-0.4,1.7-0.5
					c2-0.9,4.1-1.3,6.1-1.2c1.2,0.1,2.2,0.3,2.7,0.4c0.3,0.1,0.5,0.1,0.7,0.1c0.2,0,0.4-0.1,0.6-0.1c-0.8,1.7-1.7,3.3-2.9,4.9
					l-0.3-0.4c-0.7-0.8-1.8-1.2-3-1.2c-1.1,0-2.1,0.3-3,0.6c-2.3,0.8-4.6,1.8-6.7,3l-0.9,0.5c-0.1,0.1-0.1,0.3,0,0.3l0.9,0.3
					c0.5,0.2,0.9,0.3,1.4,0.4h0c2.3,0.5,4.8,0.1,7-1c0.4-0.2,0.8-0.4,1.1-0.6c0.3-0.2,0.7-0.4,1-0.6c0.5-0.3,1.1-0.5,1.6-0.7
					l0.2-0.1c-1.7,2.2-3.8,4.3-6.3,6.3c-0.7-0.4-1.5-0.5-2.7-0.1c-2.7,0.9-5.2,2.5-7.1,4.6l-1.2,1.3c0,0,0,0.1,0,0.1
					c0.3,0.1,1.2,0.2,2,0.1c1.8-0.2,3.5-0.2,5.3-0.9c2-0.7,3.6-2.3,4.2-4l0,0c2.3-1.8,4.4-3.8,6.2-5.9c0,0.2,0,0.5,0,0.6
					c0,0.9,0.5,2.6-1.2,4.7c-0.6,0.7-2.3,3.7-1.2,3.6c0.4,0,1.5-0.4,1.9-0.6c2.7-1.3,3.5-3.2,3.7-4.3c0.5-2.9-1.2-4.8-2.4-5
					c1.2-1.5,2.2-3.1,3.1-4.8c0.1,0.5,0.3,1.4,0.5,1.6c0.3,0.8,1,1.6,0.6,4c-0.3,1.1,0,1.5,0.1,1.6c0.2,0.2,0.4,0.4,0.7,0.4
					c0.4,0,0.8-0.4,1.2-1c1.8-2.6,1.4-4.7,1.3-5.2c-0.2-1.3-1.2-1.9-2.5-2c-0.7-0.1-1.3-0.1-1.6,0c1.1-2.2,1.9-4.4,2.5-6.8
					c0.1,0.4,0.6,0.8,0.9,1.1c0.5,0.5,0.8,1.2,1,1.8c0.1,0.4,0.2,0.9,0.2,1.4c0,0.4,0,0.8,0.3,1.1c0.7,0.6,1.2-0.4,1.4-0.9
					C123.1,99.5,123.3,97.9,122.6,96.7z"/>
			</g>
		</g>
	</g>
	<g>
		<g>
			<polygon class="st2" points="177.2,58.7 158.5,58.7 158.5,42.7 153.3,42.7 153.3,81.6 158.5,81.6 158.5,63.5 177.2,63.5 
				177.2,81.6 182.5,81.6 182.5,42.7 177.2,42.7 			"/>
			<path class="st2" d="M200.2,52c-4.4,0-8.4,0.9-9.2,1.3l-0.2,0.1V57l0.3,0c3-0.4,5.5-0.6,8.7-0.6c5.4,0,6.4,0.9,6.4,5.7v1.8h-4
				c-8.2,0-13.3,1.5-13.3,9v1c0,5.5,2.9,8.3,8.7,8.3c4.3,0,7.2-1.4,8.8-2.4v1.7h4.9V62.1C211.4,55.4,209.6,52,200.2,52z M194.1,73
				c0-4.3,2.1-5,8.2-5h4V76c-1.4,0.9-4.6,2.2-7.6,2.2c-3.2,0-4.5-1.1-4.5-3.8V73z"/>
			<path class="st2" d="M223.5,54.7v-2h-5v28.9h5.1V58.9c2.2-1.3,6.3-2.3,9.8-2.3h0.3V52h-0.3C229.3,52,226,52.9,223.5,54.7z"/>
			<path class="st2" d="M246.9,52c-4.4,0-8.4,0.9-9.2,1.3l-0.2,0.1V57l0.3,0c3-0.4,5.5-0.6,8.7-0.6c5.4,0,6.4,0.9,6.4,5.7v1.8h-4
				c-8.2,0-13.3,1.5-13.3,9v1c0,5.5,2.9,8.3,8.7,8.3c4.3,0,7.2-1.4,8.8-2.4v1.7h4.9V62.1C258.1,55.4,256.4,52,246.9,52z M240.8,73
				c0-4.3,2.1-5,8.2-5h4V76c-1.4,0.9-4.6,2.2-7.6,2.2c-3.2,0-4.5-1.1-4.5-3.8V73z"/>
			<rect x="265.5" y="41.1" class="st2" width="5.1" height="40.4"/>
			<path class="st2" d="M295.6,52.6c-2.3-0.5-4.3-0.7-6.4-0.7c-8.2,0-12,4.1-12,13v4.9c0,8.1,3.7,12.4,10.8,12.4c3.4,0,6-1,7.7-2
				v1.3h5V41.1h-5.1V52.6z M295.6,76.2c-2.4,1.1-4.5,1.7-6.7,1.7c-4.6,0-6.6-2.4-6.6-7.9V65c0-7.3,2.5-8.6,7.1-8.6
				c1.5,0,3.9,0.2,6.1,0.6V76.2z"/>
			<path class="st2" d="M318.8,64.8l-2.1-0.9c-3.9-1.7-4.8-2.6-4.8-4.7c0-2.2,1.2-2.8,5.6-2.8c2,0,5.4,0.2,8.3,0.5l0.3,0v-3.9
				L326,53c-1-0.4-4.7-1-8.6-1c-7.2,0-10.5,2.3-10.5,7.3c0,4.1,2.2,6.5,7.9,9l2.1,0.9c4.8,2,5.6,2.8,5.6,5.1c0,2.2-1,3.6-5.8,3.6
				c-2.6,0-5.6-0.3-7.6-0.6c-0.6-0.1-1.1-0.1-1.5-0.2l-0.3,0v4l0.2,0.1c1,0.3,5.5,1.1,9.4,1.1c7.2,0,10.8-2.7,10.8-8.1
				C327.5,69.5,325.2,67.7,318.8,64.8z"/>
			<path class="st2" d="M346,52c-2.7,0-5.6,0.9-8,2.4v-1.7h-4.9v39.7h5.1V81.6c1.8,0.4,4.3,0.8,6.1,0.8c8.4,0,12.3-4.5,12.3-14.1
				v-2.8C356.5,56.4,353.1,52,346,52z M338.2,58.6c3.1-1.5,4.9-2,7.1-2c3.7,0,6.1,1.5,6.1,8.9v2.8c0,6.1-1.2,9.7-7.2,9.7
				c-1.7,0-3.5-0.2-6.1-0.7V58.6z"/>
			<rect x="363.1" y="41.1" class="st2" width="5.1" height="40.4"/>
			<path class="st2" d="M385.8,52c-4.4,0-8.4,0.9-9.2,1.3l-0.2,0.1V57l0.3,0c3-0.4,5.5-0.6,8.7-0.6c5.4,0,6.4,0.9,6.4,5.7v1.8h-4
				c-8.2,0-13.3,1.5-13.3,9v1c0,5.5,2.9,8.3,8.7,8.3c4.3,0,7.2-1.4,8.8-2.4v1.7h4.9V62.1C397,55.4,395.3,52,385.8,52z M379.7,73
				c0-4.3,2.1-5,8.2-5h4V76c-1.4,0.9-4.6,2.2-7.6,2.2c-3.2,0-4.5-1.1-4.5-3.8V73z"/>
			<path class="st2" d="M414.7,64.8l-2.1-0.9c-3.9-1.7-4.8-2.6-4.8-4.7c0-2.2,1.2-2.8,5.6-2.8c2,0,5.4,0.2,8.3,0.5l0.3,0v-3.9
				l-0.2-0.1c-1-0.4-4.7-1-8.6-1c-7.2,0-10.5,2.3-10.5,7.3c0,4.1,2.2,6.5,7.9,9l2.1,0.9c4.8,2,5.6,2.8,5.6,5.1c0,2.2-1,3.6-5.8,3.6
				c-2.6,0-5.6-0.3-7.6-0.6c-0.6-0.1-1.1-0.1-1.5-0.2l-0.3,0v4l0.2,0.1c1,0.3,5.5,1.1,9.4,1.1c7.2,0,10.8-2.7,10.8-8.1
				C423.4,69.5,421.2,67.7,414.7,64.8z"/>
			<path class="st2" d="M439.6,64.8l-2.1-0.9c-3.9-1.7-4.8-2.6-4.8-4.7c0-2.2,1.2-2.8,5.6-2.8c2,0,5.4,0.2,8.3,0.5l0.3,0v-3.9
				l-0.2-0.1c-1-0.4-4.7-1-8.6-1c-7.2,0-10.5,2.3-10.5,7.3c0,4.1,2.2,6.5,7.9,9l2.1,0.9c4.8,2,5.6,2.8,5.6,5.1c0,2.2-1,3.6-5.8,3.6
				c-2.6,0-5.6-0.3-7.6-0.6c-0.6-0.1-1.1-0.1-1.5-0.2l-0.3,0v4l0.2,0.1c1,0.3,5.5,1.1,9.4,1.1c7.2,0,10.8-2.7,10.8-8.1
				C448.3,69.5,446,67.7,439.6,64.8z"/>
		</g>
		<g>
			<path class="st2" d="M160.9,95.3c-3,0-4.1,0-6.4,0.1l-1.1,0v27.5l1.9,0.1c1.7,0.1,3.3,0.1,5.6,0.1c8.1,0,11.8-3.9,11.8-12.3v-3.2
				C172.7,99.3,168.8,95.3,160.9,95.3z M156.3,98c1.3,0,2.7-0.1,4.4-0.1c6.5,0,9.1,2.8,9.1,9.6v3.2c0,6.8-2.7,9.7-9.1,9.7
				c-1.6,0-3.1-0.1-4.4-0.1V98z"/>
			<path class="st2" d="M191.7,102.1c-2.2,0-3.7,0.3-5.2,0.6l-1,0.2v2.2l0.3,0c2.2-0.3,3.8-0.4,5.7-0.4c4.2,0,5,0.7,5,4.5v1.4h-3.1
				c-5.9,0-9.3,1-9.3,6.3v0.5c0,4,2,5.9,6.1,5.9c2.2,0,4.3-0.6,6.3-1.7v1.2h2.8v-13.7C199.4,104.5,198.2,102.1,191.7,102.1z
				 M187,116.9c0-3.3,1.7-3.9,6.4-3.9h3.1v6.4c-1.1,0.7-3.4,1.7-5.7,1.7c-2.6,0-3.7-1.1-3.7-3.4V116.9z"/>
			<polygon class="st2" points="219.5,102.7 215.7,102.7 207.3,111.3 207.3,94.3 204.4,94.3 204.4,122.9 207.3,122.9 207.3,113.3 
				215.7,122.9 219.5,122.9 210,112.2 			"/>
			<path class="st2" d="M228.5,102.1c-5.6,0-8.5,3.2-8.5,9.5v2.1c0,6.3,2.8,9.5,8.5,9.5s8.5-3.2,8.5-9.5v-2.1
				C236.9,105.4,234.1,102.1,228.5,102.1z M228.5,120.8c-4,0-5.6-2-5.6-7v-2.1c0-4.9,1.7-6.9,5.6-6.9c4,0,5.6,2,5.6,6.9v2.1
				C234.1,118.8,232.5,120.8,228.5,120.8z"/>
			<path class="st2" d="M250.3,102.1c-2.4,0-4.6,1-6.5,1.9v-1.4h-2.9v20.2h2.9v-16.4c2.6-1.2,4.7-1.8,6.3-1.8c2.9,0,3.8,1.3,3.8,5.4
				v12.7h2.9v-12.7C256.8,105.2,255.7,102.1,250.3,102.1z"/>
			<path class="st2" d="M268,102.1c-2.2,0-3.7,0.3-5.2,0.6l-1,0.2v2.2l0.3,0c2.2-0.3,3.8-0.4,5.7-0.4c4.2,0,5,0.7,5,4.5v1.4h-3.1
				c-5.9,0-9.3,1-9.3,6.3v0.5c0,4,2,5.9,6.1,5.9c2.2,0,4.3-0.6,6.3-1.7v1.2h2.8v-13.7C275.7,104.5,274.5,102.1,268,102.1z
				 M263.3,116.9c0-3.3,1.7-3.9,6.4-3.9h3.1v6.4c-1.1,0.7-3.4,1.7-5.7,1.7c-2.6,0-3.7-1.1-3.7-3.4V116.9z"/>
			<rect x="280.9" y="94.3" class="st2" width="2.9" height="28.6"/>
			<path class="st2" d="M296.1,102.1c-5.6,0-8.4,3.4-8.4,10v1.4c0,7.1,2.6,9.8,9.1,9.8c3.3,0,5.9-0.5,6.9-0.7l0.2,0v-2.4l-0.3,0
				c-1.6,0.3-4.4,0.5-6.7,0.5c-5.3,0-6.4-2.5-6.4-6.8v-0.2h14v-1.4C304.6,105.5,301.8,102.1,296.1,102.1z M301.6,111.3L301.6,111.3
				l-11,0.1l0-0.1c0-4.5,1.8-6.5,5.5-6.5C299.9,104.7,301.6,106.7,301.6,111.3z"/>
			<rect x="177.3" y="94.6" class="st2" width="2.9" height="4.9"/>
			<rect x="177.3" y="102.8" class="st2" width="2.8" height="19.8"/>
			<path class="st2" d="M344,115.4c-0.4,1.4-0.8,2.4-1.1,3.7c-0.1-0.3-0.2-0.5-0.2-0.7c-0.3-1-0.6-1.9-1-2.9l-4.8-12.8h-3.2
				l7.7,19.9l-0.4,1.3c-1.3,3.6-1.9,4.5-4.1,4.5c-1.1,0-2,0-3.4-0.1l-0.3,0v2.4l0.2,0c0.9,0.1,2.2,0.3,3.5,0.3
				c4.3,0,5.4-2.5,6.9-6.6l7.5-21.3l0.1-0.3h-3.1L344,115.4z"/>
			<polygon class="st2" points="369.7,102.7 365.9,102.7 357.5,111.3 357.5,94.3 354.7,94.3 354.7,122.9 357.5,122.9 357.5,113.3 
				365.8,122.8 365.9,122.9 369.7,122.9 360.3,112.2 			"/>
			<path class="st2" d="M379.6,102.1c-5.6,0-8.4,3.4-8.4,10v1.4c0,7.1,2.6,9.8,9.1,9.8c3.3,0,5.9-0.5,6.9-0.7l0.2,0v-2.4l-0.3,0
				c-1.6,0.3-4.4,0.5-6.7,0.5c-5.3,0-6.4-2.5-6.4-6.8v-0.2h14v-1.4C388.1,105.5,385.3,102.1,379.6,102.1z M385.1,111.3L385.1,111.3
				l-11,0.1l0-0.1c0-4.5,1.8-6.5,5.5-6.5C383.4,104.7,385.1,106.7,385.1,111.3z"/>
			<path class="st2" d="M401.7,102.1c-2.7,0-4.9,0.9-6.5,1.7v-9.5h-2.9v28.6h2.9v-16.6c1.3-0.6,3.6-1.6,6-1.6c2.7,0,4.1,0.8,4.1,5.5
				v12.7h2.9v-12.7C408.3,104.6,406.3,102.1,401.7,102.1z"/>
			<path class="st2" d="M425.9,119c-2.7,1.3-4.6,1.8-6.3,1.8c-3,0-3.9-1.3-3.9-5.4v-12.7h-2.8v12.7c0,3.9,0.7,7.9,6.2,7.9
				c2,0,4.1-0.6,6.8-1.9v1.4h2.9v-20.2h-2.9V119z"/>
			<path class="st2" d="M441.2,111.4l-1.4-0.6c-3.1-1.3-3.9-2-3.9-3.7c0-1.8,1.1-2.5,4.5-2.5c1.5,0,3.7,0.2,5.6,0.4l0.3,0v-2.3
				l-0.2-0.1c-0.9-0.3-3.4-0.7-5.8-0.7c-4.9,0-7.3,1.6-7.3,5c0,3.2,2.3,4.7,5.7,6.1l1.4,0.5c3.5,1.4,4.3,2.1,4.3,3.9
				c0,1.4-0.5,3-4.6,3c-1.9,0-4.1-0.3-5.5-0.5c-0.3,0-0.5-0.1-0.7-0.1l-0.3,0v2.3l0.2,0c0.9,0.2,3.6,0.7,6.4,0.7
				c6.1,0,7.4-3,7.4-5.6C447.2,114.5,445.4,113.2,441.2,111.4z"/>
			<path class="st2" d="M326.5,107.5l-3.7-1.7c-3.3-1.5-4.4-2.8-4.4-5.1c0-2.7,1.9-3.9,6.1-3.9c3,0,6.4,0.4,7.3,0.5l0.1,0l0.1,0
				v-0.1V95v-0.1l-0.1,0l-0.1,0c-1.3-0.3-4.5-0.7-7.5-0.7c-6,0-9,2.2-9,6.6c0,4,2.4,5.9,6.1,7.6l3.7,1.7c3.6,1.7,4.7,3,4.7,5.5
				c0,3.3-1.9,4.9-6.1,4.9c-2.4,0-4.9-0.2-7.6-0.5l-0.1,0l-0.1,0v0.1v2.2v0.1l0.1,0l0.1,0c1.2,0.3,4.4,0.7,7.7,0.7
				c6,0,9.1-2.6,9.1-7.5C332.9,111.3,330.6,109.4,326.5,107.5z"/>
		</g>
	</g>
</g>
</svg>
