<?xml version="1.0" encoding="UTF-8" standalone="no"?>
<svg
   xmlns:dc="http://purl.org/dc/elements/1.1/"
   xmlns:cc="http://creativecommons.org/ns#"
   xmlns:rdf="http://www.w3.org/1999/02/22-rdf-syntax-ns#"
   xmlns:svg="http://www.w3.org/2000/svg"
   xmlns="http://www.w3.org/2000/svg"
   version="1.1"
   id="svg2"
   xml:space="preserve"
   width="3218.708"
   height="193.36212"
   viewBox="0 0 3218.708 193.36212"><metadata
     id="metadata8"><rdf:RDF><cc:Work
         rdf:about=""><dc:format>image/svg+xml</dc:format><dc:type
           rdf:resource="http://purl.org/dc/dcmitype/StillImage" /><dc:title></dc:title></cc:Work></rdf:RDF></metadata><defs
     id="defs6"><clipPath
       clipPathUnits="userSpaceOnUse"
       id="clipPath20"><path
         d="M 0,263.527 0,0 l 4386.64,0 0,263.527 z"
         id="path18" /></clipPath></defs><g
     id="g10"
     transform="matrix(7.3375249,0,0,-7.3375249,0,193.36359)"><g
       id="g12"
       transform="scale(0.1,0.1)"><g
         id="g14"><g
           id="g16"
           clip-path="url(#clipPath20)"><path
             d="m 159.004,224.941 c 0,-17.382 -14.102,-31.464 -31.484,-31.464 -17.364,0 -31.4341,14.082 -31.4341,31.464 0,17.375 14.0701,31.446 31.4341,31.446 17.382,0 31.484,-14.071 31.484,-31.446"
             style="fill:#25407b;fill-opacity:1;fill-rule:nonzero;stroke:none"
             id="path22" /><path
             d="m 159.004,128.945 c 0,-17.343 -14.102,-31.4255 -31.484,-31.4255 -17.364,0 -31.4341,14.0825 -31.4341,31.4255 0,17.395 14.0701,31.485 31.4341,31.485 17.382,0 31.484,-14.09 31.484,-31.485"
             style="fill:#6da7df;fill-opacity:1;fill-rule:nonzero;stroke:none"
             id="path24" /><path
             d="M 62.9297,128.945 C 62.9297,111.602 48.8555,97.5195 31.4648,97.5195 14.1016,97.5195 0,111.602 0,128.945 c 0,17.395 14.1016,31.485 31.4648,31.485 17.3907,0 31.4649,-14.09 31.4649,-31.485"
             style="fill:#6da7df;fill-opacity:1;fill-rule:nonzero;stroke:none"
             id="path26" /><path
             d="m 255.137,128.945 c 0,-17.343 -14.102,-31.4255 -31.465,-31.4255 -17.383,0 -31.465,14.0825 -31.465,31.4255 0,17.395 14.082,31.485 31.465,31.485 17.363,0 31.465,-14.09 31.465,-31.485"
             style="fill:#6da7df;fill-opacity:1;fill-rule:nonzero;stroke:none"
             id="path28" /><path
             d="m 159.004,32.7969 c 0,-17.3672 -14.102,-31.42971 -31.484,-31.42971 -17.364,0 -31.4341,14.06251 -31.4341,31.42971 0,17.3789 14.0701,31.4804 31.4341,31.4804 17.382,0 31.484,-14.1015 31.484,-31.4804"
             style="fill:#6da7df;fill-opacity:1;fill-rule:nonzero;stroke:none"
             id="path30" /><path
             d="m 3798.11,3.14453 15,0 0,254.199 -15,0 z"
             style="fill:#25407b;fill-opacity:1;fill-rule:nonzero;stroke:none"
             id="path32" /><path
             d="m 4351.43,199.316 c -19.45,1.446 -48.73,-7.625 -49.71,-6.628 -1.45,1.433 -1.5,1.453 -0.7,6.101 0.72,4.316 3.71,10.606 11.05,12.719 3.86,1.101 10.78,4.215 22.4,4.879 12.23,0.722 28.04,0.312 30.78,1.406 -2.81,3.742 -5.48,7.695 -7.34,9.102 -7.35,3.839 -29.75,4.531 -40.59,10.488 -8.1,4.453 -9.84,12.355 -16.8,16.269 -3.74,2.266 -7.18,2.969 -11.28,3.371 -3.42,1.629 -7.59,1.473 -11.13,1.551 0.44,1.035 -4.89,1.016 -7.12,0.449 -0.71,0.93 -7.36,-0.73 -9.19,-1.972 0.31,0.605 0.66,1.074 1.39,1.66 1.05,0.832 3.55,1.691 3.88,1.973 0,-0.079 -4.4,0.273 -6.48,-2.032 -0.82,-0.937 -0.45,-0.984 -1.31,-1.933 -0.13,1.445 -0.12,1.465 0.15,2.922 0.83,1.55 2.37,3.496 3.34,3.886 -1.23,0.02 -5.05,-2.062 -5.37,-3.808 -0.33,-1.75 0.63,-1.485 0.69,-3.516 -0.63,0.262 -0.06,1.512 -2.57,2.332 -3.29,1.074 -7.82,0.02 -9.45,-0.371 0,0 2.04,0.098 4.79,-0.203 1.23,-0.117 1.58,-0.149 3.66,-0.84 0.28,-0.586 1.75,-0.41 1.99,-1.582 -1.63,-0.578 -1.67,-0.566 -2.49,-1.184 -1.37,-0.605 -3.43,-1.972 -4.88,-4.128 -2.89,-3.586 -19.46,-32.051 -23.39,-39.141 -6.47,-9.973 -20.46,-11.543 -23.68,-12.883 -17.17,-7.148 -52.19,0 -84.36,8.574 -17.94,4.785 -79.25,-4.257 -105,-12.851 -9.09,-3.028 -40.8,-15.625 -34.31,-27.871 2.11,-4.004 19.83,-6.328 40.64,-6.465 16.7,-0.098 36.7,1.957 55.76,0 24.03,-2.442 52.27,-9.238 41.47,-17.149 -10.8,-7.929 -22.87,-14.296 -32.87,-20.015 -18.03,-10.293 -21.47,-11.43 -31.37,-16.43 -18.49,-6.7655 -34.71,-13.7851 -43.96,-15.0272 -1.55,-0.2071 -10.59,-0.5782 -14.09,0 -11.56,1.2968 -21.66,10.0782 -26.13,20.5082 l -0.64,0.058 c -1.16,-0.265 -1.96,-1.406 -2.11,-2.519 0.37,-1.758 0.79,-2.903 1.2,-5.207 3.92,-12.7934 2.96,-10.7426 5.16,-22.1098 2.25,-11.582 -1.71,-14.3164 -3.81,-15.332 -4.64,-1.2891 -6.28,-1.707 -10.7,-1.9727 l -4.47,-0.6406 c -1.97,-1.0586 -4.04,-1.2344 -3.63,-4.6914 0.43,-2.4414 2.83,-5.4102 5.27,-6.5898 -0.49,-3.4493 -0.95,-5.5586 1.51,-7.7344 4.04,-2.8125 1.5,-6.1641 4.57,-9.7852 4.9,-5.7929 14.31,-5.8672 28.16,-0.9883 1.13,-1.121 2.4,-2.1171 3.75,-3.0273 3.4,-3.3789 8.03,-7.2227 18.59,-11.582 2.15,-0.8672 4.1,-1.6289 5.94,-2.2735 -1.01,-0.4101 -4.04,-1.9843 -4.76,-2.3437 -0.96,-0.4219 -2.17,-1.3008 -2.06,-2.5117 0.53,-2.1094 0.51,-3.00785 2.35,-4.00394 1.85,-1.28907 4.86,-0.45704 6.95,-0.9961 0,-1.75781 2.35,-2.63672 3.73,-3.67968 1.53,-0.53907 2.27,-1.4375 6.7,-0.53907 0.12,0.04297 0.7,-3.0937475 3.77,-3.00390375 11.27,0.32031275 20.84,3.31640375 27.52,11.42189375 14.47,0.4297 33.05,2.8906 59.63,7.2265 24.12,3.9258 37.77,6.4258 75.57,19.043 23.35,7.793 33.52,13.5352 51.93,23.6133 16.17,8.8476 23.94,12.1289 36.2,24.3867 12.28,12.2735 15.03,14.0508 24.05,31.0037 7.25,13.653 6.65,13.672 9.03,26.016 0.54,2.754 -3.3,9.355 10.64,18.32 3.58,2.285 11.17,7.656 22.89,10 13.22,2.656 35.04,5.488 35.74,8.586 1.94,8.43 -20.02,18.574 -35.09,19.695"
             style="fill:#0b141f;fill-opacity:1;fill-rule:nonzero;stroke:none"
             id="path34" /><path
             d="m 4028.69,14.6094 c -3.14,-4.68362 -9,-3.0469 -11.15,-2.1446 -0.66,0.3086 0.21,0.586 0.45,0.7579 6.46,1.0937 4.71,4.3359 10.7,1.3867"
             style="fill:#ffffff;fill-opacity:1;fill-rule:nonzero;stroke:none"
             id="path36" /><path
             d="m 4050.43,11.75 c -6.82,-9.19141 -17.3,-5.91016 -17.5,-5.82812 -0.51,1.14843 7.15,4.87892 9.3,6.48042 1.19,0.0625 6.92,-0.5937 8.2,-0.6523"
             style="fill:#ffffff;fill-opacity:1;fill-rule:nonzero;stroke:none"
             id="path38" /><path
             d="m 4038.4,13.8008 c -1.93,-1.3985 -2.05,-7.44142 -14.16,-5.07033 -2.03,0.39062 4.35,2.72653 4.35,2.72653 3.19,1.0547 5.39,4.4258 9.81,2.3438"
             style="fill:#ffffff;fill-opacity:1;fill-rule:nonzero;stroke:none"
             id="path40" /><path
             d="m 4281.56,252.793 c 3.09,-0.926 7.18,-1.191 11.6,-2.285 9.56,-2.363 11.14,-10.352 15.77,-13.641 3.66,-2.629 8,-5.051 12.24,-5.793 24.49,-4.179 34.87,-6.269 35.69,-10.136 -10.29,-0.118 -25.59,2.148 -35.22,3.476 -5.76,0.801 -13.1,1.074 -17.84,2.305 -2.78,0.351 -6.28,1.172 -6.36,1.769 -0.12,0.946 -0.39,2.989 -1.27,5.614 -0.51,-2.051 -1.33,-3.172 -3.4,-7.032 -2.07,-3.855 -2.59,-4.004 -5.86,-6.55 -0.33,-0.696 3.27,0.164 5.17,0.925 1.89,0.762 1.47,1.621 3.51,2.578 1.5,-0.195 2.52,-1.093 12.28,-2.734 5.1,-0.84 13.3,-1.387 17.84,-2.09 -1.18,0.156 -13.23,-1.875 -17.84,-3.496 -6.17,-2.187 -12.21,-7.539 -13.63,-13.289 -0.99,-3.898 1.54,-13.918 4.88,-23.059 2.51,-6.929 6.31,-11.015 8.34,-21.882 2.9,-15.403 -3.51,-33.938 -12.28,-44.383 -22.82,-27.2306 -41.23,-38.4103 -67.68,-51.008 -29.24,-13.9179 -41.07,-17.3554 -71.62,-27.539 -35.41,-11.8086 -89,-16.4375 -100.2,-15.1289 -0.05,0 -2.11,0.6836 1.41,2.1093 l 2.15,1.8164 c -9.16,-2.5 -19.85,-3.2031 -28.48,-3.3593 1.37,1.0351 9.72,3.3711 10.57,5 l -0.47,0.3711 c -7.4,-0.586 -18.24,-4.336 -25.43,-0.4883 2.17,0.6055 7.65,3.4375 10.1,4.1015 -1.43,0.7461 -4.38,0.1211 -4.75,0.0977 -4.24,-0.2148 -9.01,-0.3086 -13.28,0.7422 -3.4,1.6914 -6.02,4.3164 -9.02,6.3281 -5.17,4.1797 -11,8.8399 -14.18,15.1094 -0.26,1.1133 -0.57,1.5156 -1.14,2.4101 -0.54,0.1954 -0.75,-0.4179 -0.91,-0.7695 0.41,-4.543 2.97,-8.4375 5.05,-12.4336 -6.46,-3.0078 -14.78,-7.832 -21.79,-2.6523 -0.49,0.6719 -0.53,1.1679 -0.18,1.914 2.87,2.2422 6.49,2.3008 9.51,3.9727 l -0.64,0.75 c -5.18,0.0117 -11.12,-0.3398 -14.4,3.7305 1.25,0.7421 2.92,0.1953 4.3,0.625 2.37,0.664 4.75,1.1757 7.09,2.1015 0.12,0.418 -0.06,0.8672 -0.41,0.8867 -5.74,0.6055 -12.68,0.4688 -16.01,5.5586 l -0.31,1.0235 0.76,0.1562 c 7.71,1.0547 15.74,1.4571 22.12,7.0117 2.72,3 3.56,10.0391 3.52,13.6055 l 0.27,3.3086 c 3.89,-1.875 34.83,-7.7695 55.92,-4.8047 36.07,5.0977 62.4,14.375 95.1,27.8123 34.71,14.262 73.05,42.949 74.41,45.664 5.02,3.489 29.71,25.449 32.44,33.496 4.22,12.383 0.9,31.114 12.41,33.536 6.7,1.425 9.35,1.203 11.17,3.019 -1.82,2.41 -2.95,6.688 -3.03,8.469 -0.19,0.933 0.6,4.375 0.61,5.437 0.48,-0.246 0.74,0.731 2.87,4.305 0.72,1.133 1.68,2.336 2.6,3.176 l -0.45,0.527 c 1.07,1.883 1.32,2.117 2.23,3.68 0.94,0.332 2.4,0.859 2.02,1.25 l 0.79,1.113 c 0.95,0.586 1.67,1.504 3.26,1.66 0.79,1.074 5,2.942 8.08,2.012"
             style="fill:#ffffff;fill-opacity:1;fill-rule:nonzero;stroke:none"
             id="path42" /><path
             d="m 4296.05,239.621 c 0.51,-0.598 1.31,-2.246 0.57,-2.82 l -0.21,0.406 c -5.41,2.734 -6.44,1.348 -9.07,3.164 -0.19,1.777 3.83,2.168 7.93,1.875 1.49,-0.34 -0.23,-1.269 0.78,-2.625"
             style="fill:#0b141f;fill-opacity:1;fill-rule:nonzero;stroke:none"
             id="path44" /><path
             d="m 396.742,234.324 c -5.25,3.895 -12.898,5.848 -23.699,5.848 l -15,0 0,-65.699 15,0 c 22.5,0 35.098,11.851 35.098,33 0,11.25 -4.352,21.597 -11.399,26.851 z m 18.149,-61.949 c -9.149,-9.75 -22.2,-14.551 -40.047,-14.551 l -36.602,0 0,98.992 36.746,0 c 18.75,0 30.45,-4.199 40.203,-14.543 8.547,-9.152 13.348,-21.753 13.348,-34.648 0,-13.203 -4.949,-25.953 -13.648,-35.25"
             style="fill:#25407b;fill-opacity:1;fill-rule:nonzero;stroke:none"
             id="path46" /><path
             d="m 476.992,234.172 -11.394,-35.852 22.949,0 z m 24.449,-76.348 -7.8,24.449 -33.149,0 -8.101,-24.449 -19.797,0 35.847,98.992 16.95,0 35.847,-98.992 -19.797,0"
             style="fill:#25407b;fill-opacity:1;fill-rule:nonzero;stroke:none"
             id="path48" /><path
             d="m 564.281,154.973 -13.195,0 -36.754,101.843 20.703,0 22.645,-66.894 0.304,-1.352 0.297,-1.648 0.449,-1.797 -0.152,1.047 c 0,1.348 0.152,1.797 0.453,2.551 l 0.598,1.199 21.601,66.894 19.801,0 -36.75,-101.843"
             style="fill:#25407b;fill-opacity:1;fill-rule:nonzero;stroke:none"
             id="path50" /><path
             d="m 651.734,154.973 -13.199,0 -36.754,101.843 20.703,0 22.649,-66.894 0.301,-1.352 0.296,-1.648 0.45,-1.797 -0.149,1.047 c 0,1.348 0.149,1.797 0.453,2.551 l 0.594,1.199 21.602,66.894 19.8,0 -36.746,-101.843"
             style="fill:#25407b;fill-opacity:1;fill-rule:nonzero;stroke:none"
             id="path52" /><path
             d="m 701.98,157.824 18.8984,0 0,98.9922 -18.8984,0 z"
             style="fill:#25407b;fill-opacity:1;fill-rule:nonzero;stroke:none"
             id="path54" /><path
             d="m 739.027,183.922 31.2031,0 0,16.6523 -31.2031,0 z"
             style="fill:#25407b;fill-opacity:1;fill-rule:nonzero;stroke:none"
             id="path56" /><path
             d="m 854.824,156.926 -42.445,64.047 c -0.305,0.449 -1.051,1.797 -2.106,3.898 -0.746,1.199 -1.05,1.953 -1.195,2.098 -0.601,1.203 -0.902,1.801 -1.355,3.453 l 0,-72.598 -17.996,0 0,98.992 21.746,0 41.55,-65.097 c 0.153,-0.297 0.598,-1.047 1.047,-2.098 0.45,-1.051 0.754,-1.652 0.907,-1.949 l 0.898,-2.547 0.898,-1.805 0,73.496 17.852,0 0,-99.89 -19.801,0"
             style="fill:#25407b;fill-opacity:1;fill-rule:nonzero;stroke:none"
             id="path58" /><path
             d="m 946.473,242.273 c -18.75,0 -32.547,-15 -32.547,-34.953 0,-20.097 13.797,-34.945 32.547,-34.945 18.601,0 32.398,14.848 32.398,34.945 0,19.953 -13.797,34.953 -32.398,34.953 z m 0,-86.398 c -30.899,0 -52.5,21.301 -52.649,51.445 0,30.602 21.297,51.301 52.649,51.301 31.199,0 52.496,-20.699 52.496,-51.301 0,-30.144 -21.746,-51.445 -52.496,-51.445"
             style="fill:#25407b;fill-opacity:1;fill-rule:nonzero;stroke:none"
             id="path60" /><path
             d="m 1048.32,240.77 -12.3,0 0,-27.297 12.3,0 c 12,0 17.25,4.199 17.25,14.097 0,9.453 -4.95,13.2 -17.25,13.2 z m 19.8,-82.946 -22.65,39.598 -9.45,0 0,-39.598 -18.9,0 0,98.992 33,0 c 14.4,0 21,-1.796 26.85,-7.347 5.4,-4.949 8.1,-12.149 8.1,-21.449 0,-7.649 -1.8,-13.801 -5.4,-18.598 -3.75,-4.801 -7.2,-6.902 -15.45,-9.152 l 24.6,-42.446 -20.7,0"
             style="fill:#25407b;fill-opacity:1;fill-rule:nonzero;stroke:none"
             id="path62" /><path
             d="m 1176.42,159.172 c -10.5,-2.551 -16.65,-3.297 -24.9,-3.297 -32.84,0 -55.65,20.996 -55.65,51.598 0,15 5.71,28.047 16.36,37.797 10.19,9.3 21.59,13.199 38.69,13.199 7.2,0 14.4,-0.746 20.7,-2.246 4.8,-1.203 7.8,-2.25 14.7,-5.254 l -4.5,-15.746 c -3.6,1.347 -6.3,2.25 -8.1,2.851 -7.05,2.395 -14.1,3.598 -20.39,3.598 -22.21,0 -37.66,-13.652 -37.66,-33.301 0,-20.25 16.95,-35.699 39,-35.699 4.5,0 7.05,0.449 12.9,2.101 l 0,27.297 18.9,0 0,-40.496 c -4.5,-1.051 -7.8,-1.949 -10.05,-2.402"
             style="fill:#25407b;fill-opacity:1;fill-rule:nonzero;stroke:none"
             id="path64" /><path
             d="m 1282.62,159.172 c -10.5,-2.551 -16.65,-3.297 -24.9,-3.297 -32.85,0 -55.65,20.996 -55.65,51.598 0,15 5.7,28.047 16.35,37.797 10.2,9.3 21.6,13.199 38.7,13.199 7.2,0 14.4,-0.746 20.7,-2.246 4.8,-1.203 7.8,-2.25 14.7,-5.254 l -4.5,-15.746 c -3.6,1.347 -6.3,2.25 -8.1,2.851 -7.05,2.395 -14.1,3.598 -20.4,3.598 -22.2,0 -37.65,-13.652 -37.65,-33.301 0,-20.25 16.95,-35.699 39,-35.699 4.5,0 7.05,0.449 12.9,2.101 l 0,27.297 18.9,0 0,-40.496 c -4.5,-1.051 -7.8,-1.949 -10.05,-2.402"
             style="fill:#25407b;fill-opacity:1;fill-rule:nonzero;stroke:none"
             id="path66" /><path
             d="m 1348.32,234.172 -11.4,-35.852 22.95,0 z m 24.45,-76.348 -7.8,24.449 -33.15,0 -8.1,-24.449 -19.8,0 35.85,98.992 16.95,0 35.85,-98.992 -19.8,0"
             style="fill:#25407b;fill-opacity:1;fill-rule:nonzero;stroke:none"
             id="path68" /><path
             d="m 1510.77,163.074 c -7.2,-4.953 -15.6,-7.199 -27.9,-7.199 -12.45,0 -20.55,2.102 -28.05,7.199 -10.2,7.051 -13.5,15.297 -13.5,33.446 l 0,60.296 18.75,0 0,-61.347 c 0,-14.696 7.65,-22.043 23.4,-22.043 14.4,0 22.05,7.797 22.05,22.043 l 0,61.347 18.9,0 0,-60.296 c 0,-18.149 -3.3,-26.247 -13.65,-33.446"
             style="fill:#25407b;fill-opacity:1;fill-rule:nonzero;stroke:none"
             id="path70" /><path
             d="m 1614.87,156.926 -42.45,64.047 c -0.3,0.449 -1.05,1.797 -2.1,3.898 -0.75,1.199 -1.05,1.953 -1.2,2.098 -0.6,1.203 -0.9,1.801 -1.35,3.453 l 0,-72.598 -18,0 0,98.992 21.75,0 41.55,-65.097 c 0.15,-0.297 0.6,-1.047 1.05,-2.098 0.45,-1.051 0.75,-1.652 0.9,-1.949 l 0.9,-2.547 0.9,-1.805 0,73.496 17.85,0 0,-99.89 -19.8,0"
             style="fill:#25407b;fill-opacity:1;fill-rule:nonzero;stroke:none"
             id="path72" /><path
             d="m 1662.27,157.824 18.9023,0 0,98.9922 -18.9023,0 z"
             style="fill:#25407b;fill-opacity:1;fill-rule:nonzero;stroke:none"
             id="path74" /><path
             d="m 1744.46,154.973 -13.2,0 -36.75,101.843 20.7,0 22.65,-66.894 0.3,-1.352 0.3,-1.648 0.45,-1.797 -0.15,1.047 c 0,1.348 0.15,1.797 0.45,2.551 l 0.6,1.199 21.6,66.894 19.8,0 -36.75,-101.843"
             style="fill:#25407b;fill-opacity:1;fill-rule:nonzero;stroke:none"
             id="path76" /><path
             d="m 1795.17,157.824 0,98.992 60.29,0 0,-16.046 -41.4,0 0,-24.45 33.9,0 0,-16.05 -33.9,0 0,-26.395 43.35,0 0,-16.051 -62.24,0"
             style="fill:#25407b;fill-opacity:1;fill-rule:nonzero;stroke:none"
             id="path78" /><path
             d="m 1907.21,240.77 -12.3,0 0,-27.297 12.3,0 c 12,0 17.25,4.199 17.25,14.097 0,9.453 -4.95,13.2 -17.25,13.2 z m 19.8,-82.946 -22.64,39.598 -9.46,0 0,-39.598 -18.89,0 0,98.992 32.99,0 c 14.4,0 21,-1.796 26.85,-7.347 5.4,-4.949 8.1,-12.149 8.1,-21.449 0,-7.649 -1.8,-13.801 -5.4,-18.598 -3.75,-4.801 -7.2,-6.902 -15.45,-9.152 l 24.6,-42.446 -20.7,0"
             style="fill:#25407b;fill-opacity:1;fill-rule:nonzero;stroke:none"
             id="path80" /><path
             d="m 2018.36,233.273 c -10.5,4.649 -19.05,7.047 -25.65,7.047 -8.85,0 -14.55,-3.601 -14.55,-9.152 0,-4.199 2.4,-6.746 9.45,-10.496 15.15,-8.102 25.05,-14.402 29.7,-19.051 4.2,-4.199 6.75,-10.801 6.75,-17.699 0,-17.699 -12.9,-28.047 -34.8,-28.047 -3,0 -6,0.297 -8.85,0.602 -7.05,1.05 -10.35,2.097 -20.7,6.898 -1.35,0.598 -3.6,1.645 -6.45,3 l 7.95,17.395 c 7.2,-3.895 10.2,-5.399 14.1,-6.899 4.95,-1.797 10.35,-2.848 14.25,-2.848 8.7,0 14.4,3.899 14.4,9.899 0,4.199 -2.25,7.051 -8.7,10.648 l -15.3,8.703 c -17.55,10.047 -22.95,16.649 -22.95,27.446 0,4.953 1.5,10.051 3.9,13.801 1.65,2.55 4.2,5.101 7.35,7.351 7.2,4.945 13.35,6.598 24.9,6.598 6.6,0 12.45,-0.746 18.6,-2.551 4.8,-1.496 7.5,-2.547 14.1,-5.695 l -7.5,-16.95"
             style="fill:#25407b;fill-opacity:1;fill-rule:nonzero;stroke:none"
             id="path82" /><path
             d="m 2043.26,157.824 18.8984,0 0,98.9922 -18.8984,0 z"
             style="fill:#25407b;fill-opacity:1;fill-rule:nonzero;stroke:none"
             id="path84" /><path
             d="m 2125.01,240.77 0,-82.946 -18.9,0 0,82.946 -29.7,0 0,16.046 78.3,0 0,-16.046 -29.7,0"
             style="fill:#25407b;fill-opacity:1;fill-rule:nonzero;stroke:none"
             id="path86" /><path
             d="m 2169.56,157.824 0,98.992 60.29,0 0,-16.046 -41.39,0 0,-24.45 33.9,0 0,-16.05 -33.9,0 0,-26.395 43.35,0 0,-16.051 -62.25,0"
             style="fill:#25407b;fill-opacity:1;fill-rule:nonzero;stroke:none"
             id="path88" /><path
             d="m 2320.15,157.824 0,42.446 -50.85,0 0,-42.446 -18.9,0 0,98.992 18.9,0 0,-39.593 50.85,0 0,39.593 18.89,0 0,-98.992 -18.89,0"
             style="fill:#25407b;fill-opacity:1;fill-rule:nonzero;stroke:none"
             id="path90" /><path
             d="m 2402.35,240.77 0,-82.946 -18.9,0 0,82.946 -29.7,0 0,16.046 78.3,0 0,-16.046 -29.7,0"
             style="fill:#25407b;fill-opacity:1;fill-rule:nonzero;stroke:none"
             id="path92" /><path
             d="m 2467.59,234.172 -11.4,-35.852 22.95,0 z m 24.45,-76.348 -7.8,24.449 -33.15,0 -8.1,-24.449 -19.8,0 35.85,98.992 16.95,0 35.85,-98.992 -19.8,0"
             style="fill:#25407b;fill-opacity:1;fill-rule:nonzero;stroke:none"
             id="path94" /><path
             d="m 2556.84,200.27 -12.3,0 0,-27.293 12.3,0 c 5.85,0 8.55,0.296 11.4,1.796 4.2,1.954 6.75,6.45 6.75,11.551 0,9 -6.45,13.946 -18.15,13.946 z m 0,41.546 -12.3,0 0,-25.496 11.25,0 c 10.65,0 16.35,4.5 16.35,12.899 0,7.949 -5.7,12.597 -15.3,12.597 z m 8.25,-83.992 -40.35,0 0,98.992 35.85,0 c 12.9,0 19.35,-1.648 24.75,-6.593 4.8,-4.2 7.79,-11.25 7.79,-17.703 0,-5.551 -2.09,-11.399 -5.69,-15.598 -4.35,-4.953 -8.4,-6.75 -16.2,-7.199 15,-0.301 24.44,-10.047 24.44,-25.504 0,-17.094 -10.79,-26.395 -30.59,-26.395"
             style="fill:#25407b;fill-opacity:1;fill-rule:nonzero;stroke:none"
             id="path96" /><path
             d="m 2681.18,163.074 c -7.2,-4.953 -15.59,-7.199 -27.89,-7.199 -12.45,0 -20.56,2.102 -28.06,7.199 -10.19,7.051 -13.49,15.297 -13.49,33.446 l 0,60.296 18.75,0 0,-61.347 c 0,-14.696 7.64,-22.043 23.4,-22.043 14.39,0 22.05,7.797 22.05,22.043 l 0,61.347 18.89,0 0,-60.296 c 0,-18.149 -3.3,-26.247 -13.65,-33.446"
             style="fill:#25407b;fill-opacity:1;fill-rule:nonzero;stroke:none"
             id="path98" /><path
             d="m 2763.09,242.273 c -18.75,0 -32.55,-15 -32.55,-34.953 0,-20.097 13.8,-34.945 32.55,-34.945 18.6,0 32.4,14.848 32.4,34.945 0,19.953 -13.8,34.953 -32.4,34.953 z m 0,-86.398 c -30.9,0 -52.5,21.301 -52.65,51.445 0,30.602 21.3,51.301 52.65,51.301 31.2,0 52.5,-20.699 52.5,-51.301 0,-30.144 -21.75,-51.445 -52.5,-51.445"
             style="fill:#25407b;fill-opacity:1;fill-rule:nonzero;stroke:none"
             id="path100" /><path
             d="m 2903.48,157.824 0,42.446 -50.85,0 0,-42.446 -18.9,0 0,98.992 18.9,0 0,-39.593 50.85,0 0,39.593 18.89,0 0,-98.992 -18.89,0"
             style="fill:#25407b;fill-opacity:1;fill-rule:nonzero;stroke:none"
             id="path102" /><path
             d="m 3015.99,234.172 c -6.46,4.648 -14.11,6.898 -22.81,6.898 -19.05,0 -32.69,-13.5 -32.69,-32.25 0,-21.3 14.09,-35.25 35.69,-35.25 7.05,0 12.9,1.203 21.75,4.653 l 3.46,-15.899 c -6.3,-2.851 -8.86,-3.75 -13.35,-4.797 -4.81,-1.05 -10.05,-1.652 -15.9,-1.652 -15.45,0 -26.55,3.898 -35.85,12.301 -10.51,9.449 -16.65,24.144 -16.65,39.594 0,14.398 5.4,27.453 15.15,37.05 9.9,9.75 20.99,13.801 37.35,13.801 12.6,0 22.49,-3 31.04,-9.449 l -7.19,-15"
             style="fill:#25407b;fill-opacity:1;fill-rule:nonzero;stroke:none"
             id="path104" /><path
             d="m 3106.73,234.172 c -6.45,4.648 -14.1,6.898 -22.79,6.898 -19.06,0 -32.71,-13.5 -32.71,-32.25 0,-21.3 14.1,-35.25 35.7,-35.25 7.05,0 12.9,1.203 21.75,4.653 l 3.45,-15.899 c -6.3,-2.851 -8.85,-3.75 -13.35,-4.797 -4.8,-1.05 -10.05,-1.652 -15.9,-1.652 -15.45,0 -26.55,3.898 -35.85,12.301 -10.5,9.449 -16.65,24.144 -16.65,39.594 0,14.398 5.4,27.453 15.16,37.05 9.89,9.75 20.99,13.801 37.34,13.801 12.6,0 22.5,-3 31.05,-9.449 l -7.2,-15"
             style="fill:#25407b;fill-opacity:1;fill-rule:nonzero;stroke:none"
             id="path106" /><path
             d="m 3130.88,157.824 0,98.992 60.3,0 0,-16.046 -41.4,0 0,-24.45 33.9,0 0,-16.05 -33.9,0 0,-26.395 43.35,0 0,-16.051 -62.25,0"
             style="fill:#25407b;fill-opacity:1;fill-rule:nonzero;stroke:none"
             id="path108" /><path
             d="m 3248.48,154.973 -13.2,0 -36.75,101.843 20.7,0 22.65,-66.894 0.3,-1.352 0.3,-1.648 0.45,-1.797 -0.16,1.047 c 0,1.348 0.16,1.797 0.46,2.551 l 0.6,1.199 21.6,66.894 19.79,0 -36.74,-101.843"
             style="fill:#25407b;fill-opacity:1;fill-rule:nonzero;stroke:none"
             id="path110" /><path
             d="m 3298.73,157.824 18.8984,0 0,98.9922 -18.8984,0 z"
             style="fill:#25407b;fill-opacity:1;fill-rule:nonzero;stroke:none"
             id="path112" /><path
             d="m 3344.18,157.824 0,98.992 60.29,0 0,-16.046 -41.39,0 0,-24.45 33.89,0 0,-16.05 -33.89,0 0,-26.395 43.35,0 0,-16.051 -62.25,0"
             style="fill:#25407b;fill-opacity:1;fill-rule:nonzero;stroke:none"
             id="path114" /><path
             d="m 3479.78,233.273 c -10.5,4.649 -19.06,7.047 -25.66,7.047 -8.85,0 -14.55,-3.601 -14.55,-9.152 0,-4.199 2.4,-6.746 9.45,-10.496 15.15,-8.102 25.05,-14.402 29.7,-19.051 4.2,-4.199 6.75,-10.801 6.75,-17.699 0,-17.699 -12.89,-28.047 -34.8,-28.047 -2.99,0 -5.99,0.297 -8.84,0.602 -7.05,1.05 -10.36,2.097 -20.71,6.898 -1.34,0.598 -3.59,1.645 -6.44,3 l 7.95,17.395 c 7.19,-3.895 10.19,-5.399 14.1,-6.899 4.94,-1.797 10.34,-2.848 14.25,-2.848 8.7,0 14.39,3.899 14.39,9.899 0,4.199 -2.24,7.051 -8.7,10.648 l -15.29,8.703 c -17.55,10.047 -22.95,16.649 -22.95,27.446 0,4.953 1.49,10.051 3.89,13.801 1.65,2.55 4.2,5.101 7.36,7.351 7.2,4.945 13.35,6.598 24.89,6.598 6.6,0 12.45,-0.746 18.6,-2.551 4.8,-1.496 7.5,-2.547 14.11,-5.695 l -7.5,-16.95"
             style="fill:#25407b;fill-opacity:1;fill-rule:nonzero;stroke:none"
             id="path116" /><path
             d="m 3559.87,233.273 c -10.49,4.649 -19.05,7.047 -25.65,7.047 -8.85,0 -14.55,-3.601 -14.55,-9.152 0,-4.199 2.4,-6.746 9.45,-10.496 15.15,-8.102 25.05,-14.402 29.7,-19.051 4.2,-4.199 6.75,-10.801 6.75,-17.699 0,-17.699 -12.89,-28.047 -34.8,-28.047 -3,0 -5.99,0.297 -8.85,0.602 -7.05,1.05 -10.35,2.097 -20.7,6.898 -1.35,0.598 -3.59,1.645 -6.44,3 l 7.94,17.395 c 7.2,-3.895 10.2,-5.399 14.11,-6.899 4.94,-1.797 10.34,-2.848 14.24,-2.848 8.71,0 14.4,3.899 14.4,9.899 0,4.199 -2.25,7.051 -8.7,10.648 l -15.3,8.703 c -17.54,10.047 -22.94,16.649 -22.94,27.446 0,4.953 1.49,10.051 3.89,13.801 1.65,2.55 4.2,5.101 7.36,7.351 7.19,4.945 13.35,6.598 24.89,6.598 6.6,0 12.45,-0.746 18.6,-2.551 4.8,-1.496 7.5,-2.547 14.1,-5.695 l -7.5,-16.95"
             style="fill:#25407b;fill-opacity:1;fill-rule:nonzero;stroke:none"
             id="path118" /><path
             d="m 3652.12,163.074 c -7.2,-4.953 -15.6,-7.199 -27.89,-7.199 -12.45,0 -20.56,2.102 -28.06,7.199 -10.19,7.051 -13.49,15.297 -13.49,33.446 l 0,60.296 18.75,0 0,-61.347 c 0,-14.696 7.64,-22.043 23.39,-22.043 14.4,0 22.06,7.797 22.06,22.043 l 0,61.347 18.89,0 0,-60.296 c 0,-18.149 -3.3,-26.247 -13.65,-33.446"
             style="fill:#25407b;fill-opacity:1;fill-rule:nonzero;stroke:none"
             id="path120" /><path
             d="m 377.855,64.1016 c -4.414,-3.5938 -9.902,-5.4883 -16.293,-5.4883 -6.394,0 -11.976,1.8945 -16.386,5.4883 -4.953,4.0546 -6.934,8.8281 -6.934,16.5625 l 0,39.0779 7.383,0 0,-36.8201 c 0,-7.3828 0.543,-9.4531 3.422,-12.6094 2.969,-3.3281 7.293,-5.125 12.422,-5.125 5.133,0 9.453,1.7969 12.426,5.125 2.882,3.1563 3.417,5.2266 3.417,12.6094 l 0,36.8201 7.383,0 0,-39.0779 c 0,-7.918 -1.886,-12.5079 -6.84,-16.5625"
             style="fill:#25407b;fill-opacity:1;fill-rule:nonzero;stroke:none"
             id="path122" /><path
             d="m 442.93,59.7852 -29.981,46.3628 c -0.269,0.45 -0.719,1.168 -1.172,2.071 -0.355,0.629 -0.629,0.992 -0.718,1.347 -0.36,0.629 -0.543,1.086 -0.899,2.25 l 0,-51.4918 -7.383,0 0,59.4178 9.633,0 29.442,-45.2889 c 0.265,-0.3515 0.535,-0.8984 0.804,-1.4336 0.36,-0.9101 0.453,-0.9883 1.082,-2.707 0.09,-0.1758 0.184,-0.5352 0.364,-0.8984 l 0,50.3279 7.378,0 0,-59.9568 -8.55,0"
             style="fill:#25407b;fill-opacity:1;fill-rule:nonzero;stroke:none"
             id="path124" /><path
             d="m 471.086,60.3242 7.38281,0 0,59.418 -7.38281,0 z"
             style="fill:#25407b;fill-opacity:1;fill-rule:nonzero;stroke:none"
             id="path126" /><path
             d="m 516.898,58.7891 -4.5,0 -23.406,60.9529 7.922,0 17.555,-46.3631 c 0.359,-0.8086 0.543,-1.7187 0.629,-2.8906 0,1.0976 0.179,1.8945 0.543,2.8906 l 16.921,46.3631 7.383,0 -23.047,-60.9529"
             style="fill:#25407b;fill-opacity:1;fill-rule:nonzero;stroke:none"
             id="path128" /><path
             d="m 550.551,60.3242 0,59.4178 33.398,0 0,-6.211 -26.015,0 0,-19.8083 21.515,0 0,-6.211 -21.515,0 0,-20.9765 26.828,0 0,-6.211 -34.211,0"
             style="fill:#25407b;fill-opacity:1;fill-rule:nonzero;stroke:none"
             id="path130" /><path
             d="m 624.719,111.816 c -1.797,1.442 -3.332,1.715 -8.645,1.715 l -9.629,0 0,-21.5193 9.629,0 c 7.832,0 11.887,3.9649 11.887,11.6133 0,3.785 -1.082,6.484 -3.242,8.191 z m 6.035,-51.4918 -16.391,25.4766 -7.918,0 0,-25.4766 -7.383,0 0,59.4178 18.094,0 c 7.203,0 10.621,-1.078 14.043,-4.414 2.883,-2.789 4.684,-7.109 4.684,-11.609 0,-4.6838 -1.895,-9.1878 -5.223,-12.3323 -2.433,-2.4414 -4.59,-3.5156 -9,-4.5078 l 17.555,-26.5547 -8.461,0"
             style="fill:#25407b;fill-opacity:1;fill-rule:nonzero;stroke:none"
             id="path132" /><path
             d="m 681.598,109.66 c -3.063,1.797 -4.325,2.43 -6.211,3.063 -2.25,0.715 -5.852,1.257 -8.196,1.257 -6.746,0 -11.343,-3.328 -11.343,-8.375 0,-4.406 2.613,-6.6597 14.679,-13.0464 4.047,-2.168 7.203,-4.1484 9.36,-6.0352 2.883,-2.4296 4.59,-6.4843 4.59,-10.8007 0,-10.1758 -7.559,-16.5704 -19.536,-16.5704 -4.046,0 -7.832,0.7227 -10.98,1.9805 -2.25,0.8984 -3.781,1.7969 -7.652,4.4141 l 3.781,5.8515 c 3.328,-2.2578 4.769,-3.0586 6.844,-3.8789 2.609,-0.9843 5.488,-1.5234 8.55,-1.5234 7.02,0 11.254,3.332 11.254,9.0078 0,1.707 -0.273,3.1406 -0.902,4.2266 -0.988,1.8047 -2.699,3.5039 -5.039,4.8633 -0.992,0.5351 -4.324,2.246 -9.902,5.3007 -8.918,4.7774 -12.696,9.461 -12.696,15.5825 0,9.453 7.832,15.757 19.621,15.757 3.426,0 6.938,-0.453 9.996,-1.441 2.434,-0.809 3.872,-1.531 7.204,-3.512 l -3.422,-6.121"
             style="fill:#25407b;fill-opacity:1;fill-rule:nonzero;stroke:none"
             id="path134" /><path
             d="m 699.684,60.3242 7.38281,0 0,59.418 -7.38281,0 z"
             style="fill:#25407b;fill-opacity:1;fill-rule:nonzero;stroke:none"
             id="path136" /><path
             d="m 744.773,113.531 0,-53.2068 -7.382,0 0,53.2068 -19.801,0 0,6.211 46.988,0 0,-6.211 -19.805,0"
             style="fill:#25407b;fill-opacity:1;fill-rule:nonzero;stroke:none"
             id="path138" /><path
             d="m 775.191,60.3242 0,59.4178 33.399,0 0,-6.211 -26.016,0 0,-19.8083 21.512,0 0,-6.211 -21.512,0 0,-20.9765 26.824,0 0,-6.211 -34.207,0"
             style="fill:#25407b;fill-opacity:1;fill-rule:nonzero;stroke:none"
             id="path140" /><path
             d="m 841.797,113.531 0,-53.2068 -7.383,0 0,53.2068 -19.805,0 0,6.211 46.993,0 0,-6.211 -19.805,0"
             style="fill:#25407b;fill-opacity:1;fill-rule:nonzero;stroke:none"
             id="path142" /><path
             d="m 902.184,109.66 c -3.063,1.797 -4.325,2.43 -6.211,3.063 -2.25,0.715 -5.852,1.257 -8.196,1.257 -6.746,0 -11.343,-3.328 -11.343,-8.375 0,-4.406 2.613,-6.6597 14.679,-13.0464 4.047,-2.168 7.203,-4.1484 9.36,-6.0352 2.882,-2.4296 4.589,-6.4843 4.589,-10.8007 0,-10.1758 -7.558,-16.5704 -19.535,-16.5704 -4.047,0 -7.832,0.7227 -10.98,1.9805 -2.25,0.8984 -3.781,1.7969 -7.652,4.4141 l 3.781,5.8515 c 3.328,-2.2578 4.769,-3.0586 6.844,-3.8789 2.609,-0.9843 5.488,-1.5234 8.55,-1.5234 7.02,0 11.254,3.332 11.254,9.0078 0,1.707 -0.273,3.1406 -0.902,4.2266 -0.988,1.8047 -2.699,3.5039 -5.039,4.8633 -0.992,0.5351 -4.324,2.246 -9.903,5.3007 -8.918,4.7774 -12.695,9.461 -12.695,15.5825 0,9.453 7.832,15.757 19.621,15.757 3.426,0 6.938,-0.453 9.996,-1.441 2.434,-0.809 3.871,-1.531 7.203,-3.512 l -3.421,-6.121"
             style="fill:#25407b;fill-opacity:1;fill-rule:nonzero;stroke:none"
             id="path144" /><path
             d="m 950.242,109.66 c -3.054,1.797 -4.32,2.43 -6.211,3.063 -2.25,0.715 -5.847,1.257 -8.191,1.257 -6.746,0 -11.344,-3.328 -11.344,-8.375 0,-4.406 2.613,-6.6597 14.68,-13.0464 4.047,-2.168 7.203,-4.1484 9.359,-6.0352 2.883,-2.4296 4.59,-6.4843 4.59,-10.8007 0,-10.1758 -7.559,-16.5704 -19.535,-16.5704 -4.047,0 -7.832,0.7227 -10.985,1.9805 -2.25,0.8984 -3.777,1.7969 -7.648,4.4141 l 3.777,5.8515 c 3.332,-2.2578 4.774,-3.0586 6.84,-3.8789 2.614,-0.9843 5.496,-1.5234 8.559,-1.5234 7.019,0 11.254,3.332 11.254,9.0078 0,1.707 -0.274,3.1406 -0.907,4.2266 -0.984,1.8047 -2.699,3.5039 -5.039,4.8633 -0.988,0.5351 -4.32,2.246 -9.898,5.3007 -8.918,4.7774 -12.695,9.461 -12.695,15.5825 0,9.453 7.832,15.757 19.621,15.757 3.422,0 6.933,-0.453 9.996,-1.441 2.43,-0.809 3.871,-1.531 7.203,-3.512 l -3.426,-6.121"
             style="fill:#25407b;fill-opacity:1;fill-rule:nonzero;stroke:none"
             id="path146" /><path
             d="m 986.422,88.0469 0,-27.7227 -7.383,0 0,27.1875 -19.812,32.2303 7.925,0 15.934,-25.4842 16.387,25.4842 7.827,0 -20.878,-31.6951"
             style="fill:#25407b;fill-opacity:1;fill-rule:nonzero;stroke:none"
             id="path148" /><path
             d="m 1049.52,60.3242 -23.77,29.9805 23.22,29.4373 8.47,0 -23.23,-28.9022 24.4,-30.5156 z m -31.69,0 0,59.4178 7.38,0 0,-59.4178 -7.38,0"
             style="fill:#25407b;fill-opacity:1;fill-rule:nonzero;stroke:none"
             id="path150" /><path
             d="m 1069.21,60.3242 0,59.4178 33.4,0 0,-6.211 -26.01,0 0,-19.8083 21.51,0 0,-6.211 -21.51,0 0,-20.9765 26.82,0 0,-6.211 -34.21,0"
             style="fill:#25407b;fill-opacity:1;fill-rule:nonzero;stroke:none"
             id="path152" /><path
             d="m 1160.13,60.3242 0,27.1875 -35.02,0 0,-27.1875 -7.39,0 0,59.4178 7.39,0 0,-25.4842 35.02,0 0,25.4842 7.38,0 0,-59.4178 -7.38,0"
             style="fill:#25407b;fill-opacity:1;fill-rule:nonzero;stroke:none"
             id="path154" /><path
             d="m 1225.2,64.1016 c -4.42,-3.5938 -9.91,-5.4883 -16.3,-5.4883 -6.39,0 -11.98,1.8945 -16.39,5.4883 -4.95,4.0546 -6.93,8.8281 -6.93,16.5625 l 0,39.0779 7.38,0 0,-36.8201 c 0,-7.3828 0.55,-9.4531 3.43,-12.6094 2.97,-3.3281 7.29,-5.125 12.42,-5.125 5.13,0 9.45,1.7969 12.42,5.125 2.88,3.1563 3.42,5.2266 3.42,12.6094 l 0,36.8201 7.39,0 0,-39.0779 c 0,-7.918 -1.89,-12.5079 -6.84,-16.5625"
             style="fill:#25407b;fill-opacity:1;fill-rule:nonzero;stroke:none"
             id="path156" /><path
             d="m 1280.09,109.66 c -3.06,1.797 -4.32,2.43 -6.21,3.063 -2.25,0.715 -5.85,1.257 -8.2,1.257 -6.74,0 -11.34,-3.328 -11.34,-8.375 0,-4.406 2.61,-6.6597 14.68,-13.0464 4.05,-2.168 7.2,-4.1484 9.36,-6.0352 2.88,-2.4296 4.59,-6.4843 4.59,-10.8007 0,-10.1758 -7.56,-16.5704 -19.54,-16.5704 -4.05,0 -7.83,0.7227 -10.98,1.9805 -2.25,0.8984 -3.78,1.7969 -7.65,4.4141 l 3.78,5.8515 c 3.33,-2.2578 4.77,-3.0586 6.84,-3.8789 2.61,-0.9843 5.49,-1.5234 8.55,-1.5234 7.03,0 11.26,3.332 11.26,9.0078 0,1.707 -0.27,3.1406 -0.9,4.2266 -0.99,1.8047 -2.7,3.5039 -5.04,4.8633 -0.99,0.5351 -4.32,2.246 -9.91,5.3007 -8.91,4.7774 -12.69,9.461 -12.69,15.5825 0,9.453 7.83,15.757 19.62,15.757 3.43,0 6.94,-0.453 10,-1.441 2.43,-0.809 3.87,-1.531 7.2,-3.512 l -3.42,-6.121"
             style="fill:#25407b;fill-opacity:1;fill-rule:nonzero;stroke:none"
             id="path158" /><path
             d="m 1298.17,60.3242 0,59.4178 33.4,0 0,-6.211 -26.01,0 0,-19.8083 21.51,0 0,-6.211 -21.51,0 0,-20.9765 26.82,0 0,-6.211 -34.21,0"
             style="fill:#25407b;fill-opacity:1;fill-rule:nonzero;stroke:none"
             id="path160" /><path
             d="m 1364.78,113.531 0,-53.2068 -7.38,0 0,53.2068 -19.81,0 0,6.211 46.99,0 0,-6.211 -19.8,0"
             style="fill:#25407b;fill-opacity:1;fill-rule:nonzero;stroke:none"
             id="path162" /><path
             d="m 1457.84,59.7852 -29.98,46.3628 c -0.27,0.45 -0.72,1.168 -1.17,2.071 -0.36,0.629 -0.63,0.992 -0.72,1.347 -0.36,0.629 -0.54,1.086 -0.9,2.25 l 0,-51.4918 -7.38,0 0,59.4178 9.63,0 29.44,-45.2889 c 0.27,-0.3515 0.54,-0.8984 0.81,-1.4336 0.36,-0.9101 0.45,-0.9883 1.08,-2.707 0.09,-0.1758 0.18,-0.5352 0.36,-0.8984 l 0,50.3279 7.38,0 0,-59.9568 -8.55,0"
             style="fill:#25407b;fill-opacity:1;fill-rule:nonzero;stroke:none"
             id="path164" /><path
             d="m 1510.58,114.336 c -11.98,0 -21.79,-10.981 -21.79,-24.3048 0,-13.4101 9.81,-24.3945 21.79,-24.3945 11.88,0 21.7,10.9844 21.7,24.3945 0,13.3238 -9.82,24.3048 -21.7,24.3048 z m 0,-55.1837 c -17.29,0 -29.89,12.9571 -29.89,30.8789 0,17.8278 12.6,30.7888 29.89,30.7888 17.28,0 29.8,-12.961 29.8,-30.7888 0,-17.9218 -12.52,-30.8789 -29.8,-30.8789"
             style="fill:#25407b;fill-opacity:1;fill-rule:nonzero;stroke:none"
             id="path166" /><path
             d="m 1580.32,111.816 c -1.79,1.442 -3.33,1.715 -8.64,1.715 l -9.63,0 0,-21.5193 9.63,0 c 7.83,0 11.88,3.9649 11.88,11.6133 0,3.785 -1.07,6.484 -3.24,8.191 z m 6.04,-51.4918 -16.39,25.4766 -7.92,0 0,-25.4766 -7.38,0 0,59.4178 18.09,0 c 7.21,0 10.62,-1.078 14.05,-4.414 2.88,-2.789 4.68,-7.109 4.68,-11.609 0,-4.6838 -1.9,-9.1878 -5.23,-12.3323 -2.43,-2.4414 -4.59,-3.5156 -8.99,-4.5078 l 17.55,-26.5547 -8.46,0"
             style="fill:#25407b;fill-opacity:1;fill-rule:nonzero;stroke:none"
             id="path168" /><path
             d="m 1625.86,113.531 -11.25,0 0,-46.9958 11.25,0 c 7.83,0 12.25,1.5312 16.02,5.3984 4.33,4.5898 7.3,11.9726 7.3,18.457 0,13.2344 -9.91,23.1404 -23.32,23.1404 z m 23.05,-44.5662 c -5.4,-6.2109 -11.62,-8.6406 -21.97,-8.6406 l -19.71,0 0,59.4178 19.8,0 c 17.37,0 29.89,-12.332 29.89,-29.4373 0,-7.7461 -2.88,-15.4883 -8.01,-21.3399"
             style="fill:#25407b;fill-opacity:1;fill-rule:nonzero;stroke:none"
             id="path170" /><path
             d="m 1665.19,77.4219 17.1875,0 0,6.84766 -17.1875,0 z"
             style="fill:#25407b;fill-opacity:1;fill-rule:nonzero;stroke:none"
             id="path172" /><path
             d="m 1736.21,59.7852 -29.98,46.3628 c -0.27,0.45 -0.72,1.168 -1.17,2.071 -0.36,0.629 -0.63,0.992 -0.72,1.347 -0.36,0.629 -0.54,1.086 -0.9,2.25 l 0,-51.4918 -7.38,0 0,59.4178 9.63,0 29.44,-45.2889 c 0.27,-0.3515 0.54,-0.8984 0.81,-1.4336 0.36,-0.9101 0.45,-0.9883 1.08,-2.707 0.09,-0.1758 0.18,-0.5352 0.36,-0.8984 l 0,50.3279 7.38,0 0,-59.9568 -8.55,0"
             style="fill:#25407b;fill-opacity:1;fill-rule:nonzero;stroke:none"
             id="path174" /><path
             d="m 1788.94,114.336 c -11.97,0 -21.79,-10.981 -21.79,-24.3048 0,-13.4101 9.82,-24.3945 21.79,-24.3945 11.89,0 21.7,10.9844 21.7,24.3945 0,13.3238 -9.81,24.3048 -21.7,24.3048 z m 0,-55.1837 c -17.28,0 -29.89,12.9571 -29.89,30.8789 0,17.8278 12.61,30.7888 29.89,30.7888 17.29,0 29.8,-12.961 29.8,-30.7888 0,-17.9218 -12.51,-30.8789 -29.8,-30.8789"
             style="fill:#25407b;fill-opacity:1;fill-rule:nonzero;stroke:none"
             id="path176" /><path
             d="m 1858.69,111.816 c -1.8,1.442 -3.33,1.715 -8.64,1.715 l -9.63,0 0,-21.5193 9.63,0 c 7.83,0 11.88,3.9649 11.88,11.6133 0,3.785 -1.08,6.484 -3.24,8.191 z m 6.04,-51.4918 -16.39,25.4766 -7.92,0 0,-25.4766 -7.38,0 0,59.4178 18.09,0 c 7.2,0 10.62,-1.078 14.05,-4.414 2.88,-2.789 4.68,-7.109 4.68,-11.609 0,-4.6838 -1.9,-9.1878 -5.23,-12.3323 -2.43,-2.4414 -4.59,-3.5156 -9,-4.5078 l 17.56,-26.5547 -8.46,0"
             style="fill:#25407b;fill-opacity:1;fill-rule:nonzero;stroke:none"
             id="path178" /><path
             d="m 1926.91,61.1328 c -4.04,-1.2578 -9.99,-1.9805 -14.94,-1.9805 -17.91,0 -31.69,13.418 -31.69,30.9649 0,17.6528 13.33,30.6168 31.42,30.6168 4.23,0 9.18,-0.543 12.33,-1.351 2.62,-0.719 3.97,-1.356 7.21,-3.153 l -2.79,-6.121 c -1.44,0.809 -2.43,1.258 -3.15,1.621 -3.43,1.442 -8.11,2.34 -12.88,2.34 -8.37,0 -13.77,-2.254 -18.36,-7.566 -3.69,-4.32 -5.86,-9.9884 -5.86,-15.8399 0,-14.3164 10.99,-24.8438 25.84,-24.8438 2.97,0 5.04,0.2656 9.82,1.25 l 0,19.8086 7.38,0 0,-24.3008 c -1.89,-0.7226 -3.33,-1.1719 -4.33,-1.4453"
             style="fill:#25407b;fill-opacity:1;fill-rule:nonzero;stroke:none"
             id="path180" /><path
             d="m 1949.32,60.3242 0,59.4178 33.39,0 0,-6.211 -26.01,0 0,-19.8083 21.51,0 0,-6.211 -21.51,0 0,-20.9765 26.83,0 0,-6.211 -34.21,0"
             style="fill:#25407b;fill-opacity:1;fill-rule:nonzero;stroke:none"
             id="path182" /></g></g></g></g></svg>