<?xml version="1.0" encoding="utf-8"?>
<!-- Generator: Adobe Illustrator 18.1.1, SVG Export Plug-In . SVG Version: 6.00 Build 0)  -->
<svg version="1.1" id="Layer_1" xmlns="http://www.w3.org/2000/svg" xmlns:xlink="http://www.w3.org/1999/xlink" x="0px" y="0px"
	 viewBox="0 0 346.2 42.7" enable-background="new 0 0 346.2 42.7" xml:space="preserve">
<path fill="#00529B" d="M71,6.4C68.9,5.5,67.2,5,65.8,5c-1.8,0-3,0.7-3,1.9c0,0.9,0.5,1.4,1.9,2.1c3.1,1.7,5.1,2.9,6.1,3.9
	c0.9,0.9,1.4,2.2,1.4,3.6c0,3.6-2.6,5.7-7.1,5.7c-0.6,0-1.2-0.1-1.8-0.1c-1.4-0.2-2.1-0.4-4.2-1.4c-0.3-0.1-0.7-0.3-1.3-0.6l1.6-3.5
	c1.5,0.8,2.1,1.1,2.9,1.4c1,0.4,2.1,0.6,2.9,0.6c1.8,0,2.9-0.8,2.9-2c0-0.9-0.5-1.4-1.8-2.2l-3.1-1.8c-3.6-2.1-4.7-3.4-4.7-5.6
	c0-1,0.3-2,0.8-2.8c0.3-0.5,0.9-1,1.5-1.5c1.5-1,2.7-1.3,5.1-1.3c1.3,0,2.5,0.2,3.8,0.5c1,0.3,1.5,0.5,2.9,1.2L71,6.4"/>
<polyline fill="#00529B" points="85,4.9 85,21.8 81.1,21.8 81.1,4.9 75.1,4.9 75.1,1.6 91.1,1.6 91.1,4.9 85,4.9 "/>
<path fill="#00529B" d="M94,22.2c-1.3,0-2.4-1.1-2.4-2.4c0-1.4,1.1-2.4,2.4-2.4c1.3,0,2.4,1.1,2.4,2.4C96.4,21.1,95.3,22.2,94,22.2"
	/>
<path fill="#00529B" d="M116.5,4.6c-3.8,0-6.6,3.1-6.6,7.1c0,4.1,2.8,7.1,6.6,7.1c3.8,0,6.6-3,6.6-7.1
	C123.1,7.7,120.2,4.6,116.5,4.6 M116.5,22.2c-6.3,0-10.7-4.3-10.7-10.5c0-6.2,4.3-10.5,10.7-10.5c6.4,0,10.7,4.2,10.7,10.5
	C127.2,17.9,122.7,22.2,116.5,22.2z"/>
<polyline fill="#00529B" points="130.6,21.8 130.6,1.6 134.4,1.6 134.4,18.6 142.7,18.6 142.7,21.8 130.6,21.8 "/>
<path fill="#00529B" d="M155.1,6.3l-2.3,7.3h4.7L155.1,6.3 M160.1,21.8l-1.6-5h-6.8l-1.7,5h-4l7.3-20.2h3.5l7.3,20.2H160.1z"/>
<path fill="#00529B" d="M174.2,22.4h-2.7L164,1.6h4.2l4.6,13.6l0.1,0.3l0.1,0.3l0.1,0.4l0-0.2c0-0.3,0-0.4,0.1-0.5l0.1-0.2l4.4-13.6
	h4L174.2,22.4"/>
<path fill="#00529B" d="M196,6.4c-2.1-0.9-3.9-1.4-5.2-1.4c-1.8,0-3,0.7-3,1.9c0,0.9,0.5,1.4,1.9,2.1c3.1,1.7,5.1,2.9,6.1,3.9
	c0.9,0.9,1.4,2.2,1.4,3.6c0,3.6-2.6,5.7-7.1,5.7c-0.6,0-1.2-0.1-1.8-0.1c-1.4-0.2-2.1-0.4-4.2-1.4c-0.3-0.1-0.7-0.3-1.3-0.6l1.6-3.5
	c1.5,0.8,2.1,1.1,2.9,1.4c1,0.4,2.1,0.6,2.9,0.6c1.8,0,2.9-0.8,2.9-2c0-0.9-0.5-1.4-1.8-2.2l-3.1-1.8c-3.6-2.1-4.7-3.4-4.7-5.6
	c0-1,0.3-2,0.8-2.8c0.3-0.5,0.9-1,1.5-1.5c1.5-1,2.7-1.3,5.1-1.3c1.3,0,2.5,0.2,3.8,0.5c1,0.3,1.5,0.5,2.9,1.2L196,6.4"/>
<polyline fill="#00529B" points="224.3,21.8 224.3,13.2 213.9,13.2 213.9,21.8 210,21.8 210,1.6 213.9,1.6 213.9,9.7 224.3,9.7 
	224.3,1.6 228.1,1.6 228.1,21.8 224.3,21.8 "/>
<path fill="#00529B" d="M241.9,4.6c-3.8,0-6.6,3.1-6.6,7.1c0,4.1,2.8,7.1,6.6,7.1c3.8,0,6.6-3,6.6-7.1
	C248.6,7.7,245.7,4.6,241.9,4.6 M241.9,22.2c-6.3,0-10.7-4.3-10.7-10.5c0-6.2,4.3-10.5,10.7-10.5c6.4,0,10.7,4.2,10.7,10.5
	C252.7,17.9,248.2,22.2,241.9,22.2z"/>
<path fill="#00529B" d="M267.5,6.4c-2.1-0.9-3.9-1.4-5.2-1.4c-1.8,0-3,0.7-3,1.9c0,0.9,0.5,1.4,1.9,2.1c3.1,1.7,5.1,2.9,6.1,3.9
	c0.9,0.9,1.4,2.2,1.4,3.6c0,3.6-2.6,5.7-7.1,5.7c-0.6,0-1.2-0.1-1.8-0.1c-1.4-0.2-2.1-0.4-4.2-1.4c-0.3-0.1-0.7-0.3-1.3-0.6l1.6-3.5
	c1.5,0.8,2.1,1.1,2.9,1.4c1,0.4,2.1,0.6,2.9,0.6c1.8,0,2.9-0.8,2.9-2c0-0.9-0.5-1.4-1.8-2.2l-3.1-1.8c-3.6-2.1-4.7-3.4-4.7-5.6
	c0-1,0.3-2,0.8-2.8c0.3-0.5,0.9-1,1.5-1.5c1.5-1,2.7-1.3,5.1-1.3c1.3,0,2.5,0.2,3.8,0.5c1,0.3,1.5,0.5,2.9,1.2L267.5,6.4"/>
<path fill="#00529B" d="M278.5,4.9h-2.7v6.7l0.5,0h0.5c0.4,0,0.7,0,0.9,0c3,0,4.3-1.1,4.3-3.6C281.9,5.9,280.9,4.9,278.5,4.9
	 M283.6,13.3c-1.4,1.2-3.2,1.7-6,1.7c-0.8,0-1.2,0-1.9-0.1v6.9h-3.9V1.6h6.9c2.6,0,4.1,0.5,5.4,1.7c1.1,1.1,1.7,2.7,1.7,4.5
	C285.9,10.1,285.1,12,283.6,13.3z"/>
<rect x="289" y="1.6" fill="#00529B" width="3.9" height="20.2"/>
<polyline fill="#00529B" points="306.4,4.9 306.4,21.8 302.6,21.8 302.6,4.9 296.5,4.9 296.5,1.6 312.5,1.6 312.5,4.9 306.4,4.9 "/>
<path fill="#00529B" d="M321.6,6.3l-2.3,7.3h4.7L321.6,6.3 M326.6,21.8l-1.6-5h-6.8l-1.7,5h-4l7.3-20.2h3.5l7.3,20.2H326.6z"/>
<polyline fill="#00529B" points="334,21.8 334,1.6 337.9,1.6 337.9,18.6 346.2,18.6 346.2,21.8 334,21.8 "/>
<path fill="#00529B" d="M64.7,41.9c-0.6,0.4-1.6,0.6-2.4,0.6c-0.8,0-1.8-0.3-2.4-0.6c-0.9-0.5-1.2-1.4-1.2-3.1v-5H60V39
	c0,1.5,0.8,2.3,2.3,2.3c1.5,0,2.3-0.8,2.3-2.3v-5.3H66v5C66,40.5,65.6,41.3,64.7,41.9"/>
<path fill="#00529B" d="M76.4,42.4l-4.8-6.1c-0.3-0.4-0.4-0.6-0.4-0.8v6.8h-1.2v-8.5h1.4l4.8,6.1c0.2,0.2,0.3,0.5,0.3,0.8v-6.8h1.2
	v8.6H76.4"/>
<rect x="81.8" y="33.8" fill="#00529B" width="1.4" height="8.5"/>
<path fill="#00529B" d="M90,42.5h-0.7l-3.7-8.7h1.5l2.6,6.1c0.1,0.1,0.1,0.2,0.1,0.4c0-0.2,0-0.2,0.1-0.4l2.4-6.1h1.5L90,42.5"/>
<polyline fill="#00529B" points="96.2,42.3 96.2,33.8 101.5,33.8 101.5,34.9 97.6,34.9 97.6,37.3 100.8,37.3 100.8,38.5 97.6,38.5 
	97.6,41.1 101.6,41.1 101.6,42.3 96.2,42.3 "/>
<path fill="#00529B" d="M108.8,35.1c-0.3-0.2-0.4-0.2-1.4-0.2h-1.3v2.8h1.3c0.9,0,1,0,1.4-0.4c0.3-0.3,0.5-0.6,0.5-1.1
	C109.3,35.7,109.1,35.4,108.8,35.1 M109.6,42.3l-2.2-3.5h-1.2v3.5h-1.4v-8.5h2.9c2,0,3.2,0.9,3.2,2.4c0,1.3-0.8,2.3-2,2.5l2.4,3.6
	H109.6z"/>
<path fill="#00529B" d="M118.5,35.5c-0.4-0.3-0.6-0.4-1.1-0.5c-0.4-0.1-0.8-0.2-1.2-0.2c-1.1,0-1.7,0.4-1.7,1.1c0,0.2,0,0.3,0.1,0.4
	c0.2,0.4,0.5,0.5,2.2,1.3c1.6,0.8,2.1,1.4,2.1,2.4c0,1.5-1.2,2.4-3.1,2.4c-0.6,0-1.2-0.1-1.7-0.3c-0.4-0.1-0.6-0.3-1.2-0.6l0.6-1.2
	c0.5,0.4,0.8,0.5,1.1,0.7c0.4,0.2,0.9,0.3,1.4,0.3c1,0,1.6-0.4,1.6-1.1c0-0.6-0.3-0.9-1-1.3l-1.5-0.7c-1.3-0.6-1.9-1.3-1.9-2.2
	c0-1.4,1.2-2.3,3.1-2.3c0.6,0,1.1,0.1,1.6,0.2c0.4,0.1,0.6,0.2,1.1,0.5L118.5,35.5"/>
<rect x="122.1" y="33.8" fill="#00529B" width="1.4" height="8.5"/>
<polyline fill="#00529B" points="130.2,34.9 130.2,42.3 128.9,42.3 128.9,34.9 125.9,34.9 125.9,33.8 133.2,33.8 133.2,34.9 
	130.2,34.9 "/>
<polyline fill="#00529B" points="135.6,42.3 135.6,33.8 140.9,33.8 140.9,34.9 137,34.9 137,37.3 140.2,37.3 140.2,38.5 137,38.5 
	137,41.1 141,41.1 141,42.3 135.6,42.3 "/>
<polyline fill="#00529B" points="146.7,34.9 146.7,42.3 145.4,42.3 145.4,34.9 142.3,34.9 142.3,33.8 149.7,33.8 149.7,34.9 
	146.7,34.9 "/>
<path fill="#00529B" d="M156.7,35.5c-0.4-0.3-0.6-0.4-1.1-0.5c-0.4-0.1-0.8-0.2-1.2-0.2c-1.1,0-1.7,0.4-1.7,1.1c0,0.2,0,0.3,0.1,0.4
	c0.2,0.4,0.5,0.5,2.2,1.3c1.6,0.8,2.1,1.4,2.1,2.4c0,1.5-1.2,2.4-3.1,2.4c-0.6,0-1.2-0.1-1.7-0.3c-0.4-0.1-0.6-0.3-1.2-0.6l0.6-1.2
	c0.5,0.4,0.8,0.5,1.1,0.7c0.4,0.2,0.9,0.3,1.4,0.3c1,0,1.6-0.4,1.6-1.1c0-0.6-0.3-0.9-1-1.3l-1.5-0.7c-1.3-0.6-1.9-1.3-1.9-2.2
	c0-1.4,1.2-2.3,3.1-2.3c0.6,0,1.1,0.1,1.6,0.2c0.4,0.1,0.6,0.2,1.1,0.5L156.7,35.5"/>
<path fill="#00529B" d="M164.9,35.5c-0.4-0.3-0.6-0.4-1.1-0.5c-0.4-0.1-0.8-0.2-1.2-0.2c-1.1,0-1.7,0.4-1.7,1.1c0,0.2,0,0.3,0.1,0.4
	c0.2,0.4,0.5,0.5,2.2,1.3c1.6,0.8,2.1,1.4,2.1,2.4c0,1.5-1.2,2.4-3.1,2.4c-0.6,0-1.2-0.1-1.7-0.3c-0.4-0.1-0.6-0.3-1.2-0.6l0.6-1.2
	c0.5,0.4,0.8,0.5,1.1,0.7c0.4,0.2,0.9,0.3,1.4,0.3c1,0,1.6-0.4,1.6-1.1c0-0.6-0.3-0.9-1-1.3l-1.5-0.7c-1.3-0.6-1.9-1.3-1.9-2.2
	c0-1.4,1.2-2.3,3.1-2.3c0.6,0,1.1,0.1,1.6,0.2c0.4,0.1,0.6,0.2,1.1,0.5L164.9,35.5"/>
<polyline fill="#00529B" points="171.3,38.5 171.3,42.3 170,42.3 170,38.5 167,33.8 168.5,33.8 170.8,37.2 173,33.8 174.6,33.8 
	171.3,38.5 "/>
<path fill="#00529B" d="M182.2,42.3l-3.6-4.3l3.5-4.3h1.8l-3.6,4.3l3.8,4.3H182.2 M177.1,33.8h1.4v8.5h-1.4V33.8z"/>
<polyline fill="#00529B" points="186.6,42.3 186.6,33.8 191.9,33.8 191.9,34.9 188,34.9 188,37.3 191.2,37.3 191.2,38.5 188,38.5 
	188,41.1 192,41.1 192,42.3 186.6,42.3 "/>
<polyline fill="#00529B" points="201.9,42.3 201.9,38.5 196.5,38.5 196.5,42.3 195.1,42.3 195.1,33.8 196.5,33.8 196.5,37.3 
	201.9,37.3 201.9,33.8 203.2,33.8 203.2,42.3 201.9,42.3 "/>
<path fill="#00529B" d="M213.2,41.9c-0.6,0.4-1.6,0.6-2.4,0.6c-0.8,0-1.8-0.3-2.4-0.6c-0.9-0.5-1.2-1.4-1.2-3.1v-5h1.3V39
	c0,1.5,0.8,2.3,2.3,2.3c1.5,0,2.3-0.8,2.3-2.3v-5.3h1.3v5C214.4,40.5,214.1,41.3,213.2,41.9"/>
<path fill="#00529B" d="M222.9,35.5c-0.4-0.3-0.6-0.4-1.1-0.5c-0.4-0.1-0.8-0.2-1.2-0.2c-1.1,0-1.7,0.4-1.7,1.1c0,0.2,0,0.3,0.1,0.4
	c0.2,0.4,0.5,0.5,2.2,1.3c1.6,0.8,2.1,1.4,2.1,2.4c0,1.5-1.2,2.4-3.1,2.4c-0.6,0-1.2-0.1-1.7-0.3c-0.4-0.1-0.6-0.3-1.2-0.6l0.6-1.2
	c0.5,0.4,0.8,0.5,1.1,0.7c0.4,0.2,0.9,0.3,1.4,0.3c1,0,1.6-0.4,1.6-1.1c0-0.6-0.3-0.9-1-1.3l-1.5-0.7c-1.3-0.6-1.9-1.3-1.9-2.2
	c0-1.4,1.2-2.3,3.1-2.3c0.6,0,1.1,0.1,1.6,0.2c0.4,0.1,0.6,0.2,1.1,0.5L222.9,35.5"/>
<polyline fill="#00529B" points="226.6,42.3 226.6,33.8 231.8,33.8 231.8,34.9 227.9,34.9 227.9,37.3 231.1,37.3 231.1,38.5 
	227.9,38.5 227.9,41.1 231.9,41.1 231.9,42.3 226.6,42.3 "/>
<polyline fill="#00529B" points="237.6,34.9 237.6,42.3 236.3,42.3 236.3,34.9 233.3,34.9 233.3,33.8 240.7,33.8 240.7,34.9 
	237.6,34.9 "/>
<rect x="247.5" y="33.8" fill="#00529B" width="1.4" height="8.5"/>
<polyline fill="#00529B" points="260,34.9 260,42.3 258.7,42.3 258.7,34.9 255.7,34.9 255.7,33.8 263.1,33.8 263.1,34.9 260,34.9 
	"/>
<path fill="#00529B" d="M269.5,35.1c-0.3-0.2-0.4-0.2-1.4-0.2h-1.3v2.8h1.3c0.9,0,1,0,1.4-0.4c0.3-0.3,0.5-0.6,0.5-1.1
	C270,35.7,269.8,35.4,269.5,35.1 M270.3,42.3l-2.2-3.5h-1.2v3.5h-1.4v-8.5h2.9c2,0,3.2,0.9,3.2,2.4c0,1.3-0.8,2.3-2,2.5l2.4,3.6
	H270.3z"/>
<path fill="#00529B" d="M278.2,34.7c-1.9,0-3.3,1.4-3.3,3.3s1.4,3.3,3.3,3.3c1.9,0,3.3-1.4,3.3-3.3S280.1,34.7,278.2,34.7
	 M278.2,42.4c-2.7,0-4.7-1.9-4.7-4.4c0-2.5,2-4.4,4.7-4.4c2.7,0,4.7,1.9,4.7,4.4C283,40.6,281,42.4,278.2,42.4z"/>
<path fill="#00529B" d="M292.6,42.4l-4.8-6.1c-0.3-0.4-0.4-0.6-0.4-0.8v6.8h-1.2v-8.5h1.4l4.8,6.1c0.2,0.2,0.3,0.5,0.3,0.8v-6.8h1.2
	v8.6H292.6"/>
<path fill="#00529B" d="M303.3,35.5c-0.5-0.4-1.1-0.6-2.3-0.6h-1.7v6.3h1.6c1.2,0,1.8-0.2,2.4-0.6c0.7-0.6,1.1-1.6,1.1-2.5
	C304.4,37,304,36.1,303.3,35.5 M304.6,41.1c-0.8,0.8-1.9,1.2-3.5,1.2H298v-8.5h3.1c1.6,0,2.7,0.4,3.5,1.2c0.7,0.7,1.2,2,1.2,3.1
	C305.8,39.1,305.4,40.3,304.6,41.1z"/>
<polyline fill="#00529B" points="315.5,42.3 315.5,38.5 310.2,38.5 310.2,42.3 308.8,42.3 308.8,33.8 310.2,33.8 310.2,37.3 
	315.5,37.3 315.5,33.8 316.9,33.8 316.9,42.3 315.5,42.3 "/>
<polyline fill="#00529B" points="321,42.3 321,33.8 326.3,33.8 326.3,34.9 322.4,34.9 322.4,37.3 325.6,37.3 325.6,38.5 322.4,38.5 
	322.4,41.1 326.4,41.1 326.4,42.3 321,42.3 "/>
<rect x="329.5" y="33.8" fill="#00529B" width="1.4" height="8.5"/>
<path fill="#00529B" d="M343.1,42.3v-6.8c-0.1,0.4-0.2,0.6-0.3,1l-2.6,5.8h-1.1l-2.3-5.4c-0.2-0.5-0.3-0.6-0.3-1.1v6.6h-1.4v-8.5
	h1.7l2.8,6.3c0.1,0.3,0.1,0.3,0.2,0.7c0.1-0.3,0.1-0.3,0.2-0.7l2.9-6.3h1.7v8.5H343.1"/>
<path fill="#68ADDF" d="M26.6,5.3c0,2.9-2.4,5.3-5.3,5.3c-2.9,0-5.3-2.4-5.3-5.3c0-2.9,2.4-5.3,5.3-5.3C24.2,0,26.6,2.4,26.6,5.3"/>
<path fill="#00529B" d="M26.6,21.4c0,2.9-2.4,5.3-5.3,5.3c-2.9,0-5.3-2.4-5.3-5.3c0-2.9,2.4-5.3,5.3-5.3
	C24.2,16.1,26.6,18.4,26.6,21.4"/>
<path fill="#68ADDF" d="M10.5,21.4c0,2.9-2.4,5.3-5.3,5.3c-2.9,0-5.3-2.4-5.3-5.3c0-2.9,2.4-5.3,5.3-5.3
	C8.2,16.1,10.5,18.4,10.5,21.4"/>
<path fill="#68ADDF" d="M42.7,21.4c0,2.9-2.4,5.3-5.3,5.3c-2.9,0-5.3-2.4-5.3-5.3c0-2.9,2.4-5.3,5.3-5.3
	C40.3,16.1,42.7,18.4,42.7,21.4"/>
<path fill="#68ADDF" d="M26.6,37.5c0,2.9-2.4,5.3-5.3,5.3c-2.9,0-5.3-2.4-5.3-5.3c0-2.9,2.4-5.3,5.3-5.3
	C24.2,32.2,26.6,34.5,26.6,37.5"/>
</svg>
