<?xml version="1.0" encoding="UTF-8"?>
<svg width="71px" height="27px" viewBox="0 0 71 27" version="1.1" xmlns="http://www.w3.org/2000/svg" xmlns:xlink="http://www.w3.org/1999/xlink">
    <!-- Generator: sketchtool 51.3 (57544) - http://www.bohemiancoding.com/sketch -->
    <title>10E90088-616F-4ED8-9BA2-A72EF1C1C173</title>
    <desc>Created with sketchtool.</desc>
    <defs></defs>
    <g id="Page-1" stroke="none" stroke-width="1" fill="none" fill-rule="evenodd">
        <g id="Dashboard---ikoner" transform="translate(-889.000000, -729.000000)">
            <rect fill="#FFFFFF" x="0" y="0" width="1440" height="941"></rect>
            <g id="Group-4" transform="translate(892.000000, 734.000000)" stroke-linecap="round" stroke-linejoin="round" stroke-width="3">
                <path d="M17.7944085,18 L9.20559154,18 C4.1425162,18 0,13.95 0,9 C0,4.05 4.1425162,0 9.20559154,0 L17.7944085,0 C22.8574838,0 27,4.05 27,9 C27,13.95 22.8574838,18 17.7944085,18 Z" id="Stroke-1" stroke="#1B3459"></path>
                <path d="M53.7937807,18 L45.2062193,18 C40.1427987,18 36,13.95 36,9 C36,4.05 40.1427987,0 45.2062193,0 L53.7937807,0 C58.8572013,0 63,4.05 63,9 C63,13.95 58.8572013,18 53.7937807,18 Z" id="Stroke-3" stroke="#1B3459"></path>
                <path d="M16.2,9 L46.8,9" id="Stroke-5" stroke="#2168A8"></path>
            </g>
        </g>
    </g>
</svg>