<svg data-name="Layer 1" fill="#ffffff" xmlns="http://www.w3.org/2000/svg" viewBox="0 0 24 24">
<rect x="5" y="9" width="9" height="1" rx=".5"/>
<rect x="5" y="11" width="9" height="1" rx=".5"/>
<rect x="5" y="13" width="7" height="1" rx=".5"/>
<path d="M21.79 21.12l-2.4-2.39a3 3 0 10-4.52.38 2.94 2.94 0 003.82.32l2.39 2.4a.49.49 0 00.35.14.5.5 0 00.36-.14.51.51 0 000-.71zM17 19a2 2 0 01-1.39-.58A1.93 1.93 0 0115 17a2 2 0 112 2z"/>
<path d="M16.85 6.15l-4-4A.49.49 0 0012.5 2h-10a.5.5 0 00-.5.5v19a.5.5 0 00.5.5h13a.5.5 0 000-1H3V3h9v3.5a.5.5 0 00.5.5H16v5.5a.5.5 0 001 0v-6a.49.49 0 00-.15-.35zM13 3.71L15.29 6H13z"/></svg>