<svg id="Layer_1" data-name="Layer 1" xmlns="http://www.w3.org/2000/svg" viewBox="0 0 40 40"><defs><style>.cls-1{fill:#231f20;}</style></defs><path class="cls-1" d="M32,17.14H27V11a1,1,0,0,0-1-1H14a1,1,0,0,0-1,1v6.14H8a1,1,0,0,0-1,1V29a1,1,0,0,0,1,1h5l.9,0,.1,0H26s0,0,0,0h6a1,1,0,0,0,1-1V18.14A1,1,0,0,0,32,17.14ZM13,29H8V18.14h5Zm6.5,0H17V23h2.5ZM23,29H20.5V23H23Zm3-10.86V29H24V22H16v7H14V11H26ZM32,29H27V18.14h5Z"/><rect class="cls-1" x="9" y="20" width="1" height="1"/><rect class="cls-1" x="11" y="20" width="1" height="1"/><rect class="cls-1" x="9" y="22" width="1" height="1"/><rect class="cls-1" x="11" y="22" width="1" height="1"/><rect class="cls-1" x="9" y="24" width="1" height="1"/><rect class="cls-1" x="11" y="24" width="1" height="1"/><rect class="cls-1" x="28" y="20" width="1" height="1"/><rect class="cls-1" x="30" y="20" width="1" height="1"/><rect class="cls-1" x="28" y="22" width="1" height="1"/><rect class="cls-1" x="30" y="22" width="1" height="1"/><rect class="cls-1" x="28" y="24" width="1" height="1"/><rect class="cls-1" x="30" y="24" width="1" height="1"/><polygon class="cls-1" points="19.5 16 20.5 16 20.5 15 21.5 15 21.5 14 20.5 14 20.5 13 19.5 13 19.5 14 18.5 14 18.5 15 19.5 15 19.5 16"/></svg>