<svg id="Layer_1" data-name="Layer 1" xmlns="http://www.w3.org/2000/svg" viewBox="0 0 40 40"><path d="M23,14H17a4,4,0,0,0-4,4v6a1,1,0,0,0,1,1h1v7H25V28.4a2,2,0,0,0,2-2V18A4,4,0,0,0,23,14Zm-1.67,1-1.56,1.53L18.54,15ZM14,24V18a3,3,0,0,1,3-3h.26l3.2,4H15v4h4a.5.5,0,0,1,0,1H14Zm5-2H16V20h6v7H16V25h3a1.5,1.5,0,0,0,0-3Zm7,4.4a1,1,0,0,1-1,1V19H24V31H16V28h7V19H21.74L20.4,17.32,22.75,15H23a3,3,0,0,1,3,3Z"/><path d="M23.5,10.5A3.5,3.5,0,1,0,20,14,3.5,3.5,0,0,0,23.5,10.5ZM20,13a2.5,2.5,0,1,1,2.5-2.5A2.5,2.5,0,0,1,20,13Z"/></svg>