<svg xmlns="http://www.w3.org/2000/svg" viewBox="0 0 20 14"><defs/><path fill="#034584" d="M16.956 6.626a.572.787 0 010 .65.615.846 0 01-.143.275l-4.01 5.102a.708.974 0 01-.946 0 .586.806 0 010-1.202l2.869-3.652H4.585c-.369 0-.668-.38-.668-.849-.001-.47.298-.85.668-.85h10.141l-2.865-3.65a.586.806 0 010-1.203.696.957 0 01.473-.248c.17 0 .342.08.472.247l4.008 5.102a.584.803 0 01.143.276z"/><rect width="1.432" height="13.537" x="18.079" y=".202" fill="#034584" ry=".22"/><path fill="#034584" d="M14.882 12.612h3.63v1.128h-3.63zm.022-12.41h3.775V1.33h-3.775z"/></svg>