<svg xmlns="http://www.w3.org/2000/svg" width="40" height="40" opacity=".5">
  <path fill="#eee" d="M24.9 4.9c0 2.7-2.2 4.9-4.9 4.9s-4.9-2.2-4.9-4.9S17.3 0 20 0s4.9 2.2 4.9 4.9"/>
  <path fill="#919191" d="M24.9 20c0 2.7-2.2 4.9-4.9 4.9s-4.9-2.2-4.9-4.9 2.2-4.9 4.9-4.9c2.7-.1 4.9 2.2 4.9 4.9M9.9 20c0 2.7-2.2 4.9-4.9 4.9-2.8 0-5-2.2-5-4.9s2.2-5 4.9-5c2.8 0 5 2.3 5 5M40 20c0 2.7-2.2 4.9-4.9 4.9s-4.9-2.2-4.9-4.9 2.2-4.9 4.9-4.9C37.8 15 40 17.3 40 20M24.9 35.1c0 2.7-2.2 4.9-4.9 4.9s-4.9-2.2-4.9-4.9 2.2-4.9 4.9-4.9c2.7-.1 4.9 2.1 4.9 4.9"/>
</svg>