<svg id="Layer_1" data-name="Layer 1" xmlns="http://www.w3.org/2000/svg" viewBox="0 0 40 40"><defs><style>.cls-1{fill:#034584;}</style></defs><path class="cls-1" d="M12,17a3,3,0,1,0,3,3A3,3,0,0,0,12,17Zm0,5a2,2,0,1,1,2-2A2,2,0,0,1,12,22Z"/><path class="cls-1" d="M20,17a3,3,0,1,0,3,3A3,3,0,0,0,20,17Zm0,5a2,2,0,1,1,2-2A2,2,0,0,1,20,22Z"/><path class="cls-1" d="M20,9a3,3,0,1,0,3,3A3,3,0,0,0,20,9Zm0,5a2,2,0,1,1,2-2A2,2,0,0,1,20,14Z"/><path class="cls-1" d="M20,25a3,3,0,1,0,3,3A3,3,0,0,0,20,25Zm0,5a2,2,0,1,1,2-2A2,2,0,0,1,20,30Z"/><path class="cls-1" d="M28,17a3,3,0,1,0,3,3A3,3,0,0,0,28,17Zm0,5a2,2,0,1,1,2-2A2,2,0,0,1,28,22Z"/></svg>