<svg id="Layer_1" data-name="Layer 1" xmlns="http://www.w3.org/2000/svg" viewBox="0 0 40 40"><path fill="#034584" d="M26,27.83H24.5a8.47,8.47,0,0,0,0-15l1.09-1.09a1,1,0,0,0,0-1.41L25.24,10l1-1a.54.54,0,0,0,0-.78l-2-2.05A.54.54,0,0,0,23.83,6a.53.53,0,0,0-.39.16l-1,1-.35-.35a1,1,0,0,0-1.41,0L15.7,11.78l-.36-.35a.48.48,0,0,0-.7,0,.48.48,0,0,0,0,.7L16.4,13.9l-1,1a.57.57,0,0,0,0,.79L16.72,17a.56.56,0,0,0,.39.17A.54.54,0,0,0,17.5,17l1-1,1.76,1.77a.51.51,0,0,0,.36.15.5.5,0,0,0,.35-.15h0a.5.5,0,0,0,0-.71l-.35-.35,1.59-1.59a5.48,5.48,0,0,1,.55,10.19,2.5,2.5,0,0,0-4.58,0,5.53,5.53,0,0,1-2.6-2.5h.89a.5.5,0,0,0,0-1h-5a.5.5,0,0,0,0,1h.88a8.51,8.51,0,0,0,4.12,5H15a1,1,0,0,0-1,1v2.23H27V28.83A1,1,0,0,0,26,27.83ZM23.83,7.18,25.24,8.6l-.7.71L23.12,7.89ZM17.11,16l-.71-.7.71-.71.71.71Zm4-1.15L19.94,16,16.4,12.49l5-4.95h0l3.54,3.53-1.34,1.35ZM23,26.33a6.48,6.48,0,0,0,0-12l.76-.75A7.48,7.48,0,0,1,22.7,27.5,2.54,2.54,0,0,0,23,26.33Zm-3.83-.67a1.48,1.48,0,0,1,2.66,0,1.39,1.39,0,0,1,.17.67,1.86,1.86,0,0,1,0,.33,1.5,1.5,0,0,1-2.92,0,1.86,1.86,0,0,1,0-.33A1.39,1.39,0,0,1,19.17,25.66Zm-5.73-2.83H14.5a6.52,6.52,0,0,0,3.5,3.5,2.54,2.54,0,0,0,.3,1.17A7.51,7.51,0,0,1,13.44,22.83ZM26,30.06H15V28.83H26Z"/></svg>