<svg xmlns="http://www.w3.org/2000/svg" width="62.84" height="54.229">
  <path fill="#e6e5e1" d="M24.61 5.625q-7.12 4.746-10.372 9.229-3.164 4.482-4.394 11.601 4.043-1.055 6.152-1.055 5.8 0 9.316 4.043 3.516 4.043 3.516 10.547 0 6.504-3.603 10.371-3.516 3.868-9.405 3.868-7.91 0-12.129-6.504Q0 41.924 0 33.662 0 14.414 20.39 0l4.22 5.625zm34.011 0q-7.12 4.746-10.371 9.229-3.164 4.482-4.482 11.601 4.13-1.055 6.24-1.055 5.8 0 9.316 4.043 3.516 3.955 3.516 10.547 0 6.504-3.604 10.371-3.515 3.868-9.404 3.868-7.91 0-12.129-6.504-3.691-5.801-3.691-14.063 0-19.248 20.39-33.662l4.22 5.625z"/>
</svg>