<svg xmlns="http://www.w3.org/2000/svg" width="512" height="512" viewBox="0 0 512 512">
  <g fill-rule="evenodd" clip-rule="evenodd">
    <path fill="#51515e" d="M357.5 415.6H153.8c-32.1 0-58.2-26-58.2-58.2V153.8c0-32.1 26.1-58.2 58.2-58.2h203.6c32.1 0 58.2 26 58.2 58.2v203.6c0 32.2-26 58.2-58.1 58.2z"/>
    <path fill="#6e6e6e" d="M468 65.3c-98.4 60.4-169.9 136.6-202 174.9l-78.6-61.6-34.7 28 135.8 138.2c23.4-59.9 97.4-177 187.8-260.2L468 65.3z"/>
    <path fill="#6e6e6e" d="M325.6 134.7H164.7c-16.6 0-30 13.4-30 30v181.8c0 16.6 13.4 30 30 30h181.8c16.6 0 30-13.4 30-30V238.6l39.1-34.9v153.8c0 32.1-26 58.2-58.2 58.2H153.8c-32.1 0-58.2-26-58.2-58.2V153.8c0-32.1 26-58.2 58.2-58.2h203.6c3.7 0 7.3.4 10.8 1.1l-42.6 38z"/>
  </g>
</svg>