<svg xmlns="http://www.w3.org/2000/svg" width="512" height="512" viewBox="0 0 512 512">
  <g fill="#3871ab" fill-rule="evenodd" clip-rule="evenodd">
    <path fill="#cddbe8" d="M414.7 505.6H96.5c-50.2 0-90.9-40.7-90.9-90.9V96.5c0-50.2 40.7-90.9 90.9-90.9h318.2c50.2 0 90.9 40.7 90.9 90.9v318.2c0 50.2-40.7 90.9-90.9 90.9zM446.8 134c0-38.4-31.1-69.5-69.5-69.5H134c-38.4 0-69.5 31.1-69.5 69.5v243.3c0 38.4 31.1 69.5 69.5 69.5h243.3c38.4 0 69.5-31.1 69.5-69.5V134z"/>
    <path d="M468 65.3c-98.4 60.4-169.9 136.6-202 174.9l-78.6-61.6-34.7 28 135.8 138.2c23.4-59.9 97.4-177 187.8-260.2L468 65.3z"/>
    <path d="M325.6 134.7H164.7c-16.6 0-30 13.4-30 30v181.8c0 16.6 13.4 30 30 30h181.8c16.6 0 30-13.4 30-30V238.6l39.1-34.9v153.8c0 32.1-26 58.2-58.2 58.2H153.8c-32.1 0-58.2-26-58.2-58.2V153.8c0-32.1 26-58.2 58.2-58.2h203.6c3.7 0 7.3.4 10.8 1.1l-42.6 38z"/>
  </g>
</svg>