<svg xmlns="http://www.w3.org/2000/svg" width="512" height="512" viewBox="0 0 512 512">
  <g fill="olive" fill-rule="evenodd" clip-rule="evenodd">
    <path fill="#cddbe8" d="M414.7 505.6H96.5c-50.2 0-90.9-40.7-90.9-90.9V96.5c0-50.2 40.7-90.9 90.9-90.9h318.2c50.2 0 90.9 40.7 90.9 90.9v318.2c0 50.2-40.7 90.9-90.9 90.9zM446.8 134c0-38.4-31.1-69.5-69.5-69.5H134c-38.4 0-69.5 31.1-69.5 69.5v243.3c0 38.4 31.1 69.5 69.5 69.5h243.3c38.4 0 69.5-31.1 69.5-69.5V134z"/>
    <path fill="#3871ab" d="M357.4 415.6H153.8c-32.1 0-58.2-26-58.2-58.2V153.8c0-32.1 26-58.2 58.2-58.2h203.6c32.1 0 58.2 26 58.2 58.2v203.6c0 32.2-26 58.2-58.2 58.2zm19.1-250.8c0-16.6-13.4-30-30-30H164.8c-16.6 0-30 13.4-30 30v181.8c0 16.6 13.4 30 30 30h181.8c16.6 0 30-13.4 30-30V164.8z"/>
  </g>
</svg>