<?xml version="1.0" encoding="UTF-8" standalone="no"?>
<svg
   xmlns:dc="http://purl.org/dc/elements/1.1/"
   xmlns:cc="http://creativecommons.org/ns#"
   xmlns:rdf="http://www.w3.org/1999/02/22-rdf-syntax-ns#"
   xmlns:svg="http://www.w3.org/2000/svg"
   xmlns="http://www.w3.org/2000/svg"
   version="1.1"
   id="svg2"
   viewBox="0 0 512 512"
   height="512"
   width="512">
  <metadata
     id="metadata14">
    <rdf:RDF>
      <cc:Work
         rdf:about="">
        <dc:format>image/svg+xml</dc:format>
        <dc:type
           rdf:resource="http://purl.org/dc/dcmitype/StillImage" />
        <dc:title></dc:title>
      </cc:Work>
    </rdf:RDF>
  </metadata>
  <defs
     id="defs12" />
  <g
     id="g4"
     clip-rule="evenodd"
     fill-rule="evenodd">
    <path
       id="path6"
       d="M357.4 415.6H153.8c-32.1 0-58.2-26-58.2-58.2V153.8c0-32.1 26-58.2 58.2-58.2h203.6c32.1 0 58.2 26 58.2 58.2v203.6c0 32.2-26 58.2-58.2 58.2z"
       fill="#6e6e6e" />
    <path
       id="path8"
       d="M376.5 164.8c0-16.6-13.4-30-30-30H164.8c-16.6 0-30 13.4-30 30v181.8c0 16.6 13.4 30 30 30h181.8c16.6 0 30-13.4 30-30V164.8z"
       fill="#b6aea8" />
  </g>
</svg>
