<?xml version="1.0" encoding="UTF-8" standalone="no"?>
<svg
   xmlns:dc="http://purl.org/dc/elements/1.1/"
   xmlns:cc="http://creativecommons.org/ns#"
   xmlns:rdf="http://www.w3.org/1999/02/22-rdf-syntax-ns#"
   xmlns:svg="http://www.w3.org/2000/svg"
   xmlns="http://www.w3.org/2000/svg"
   version="1.1"
   id="svg2"
   viewBox="0 0 512 512"
   height="512"
   width="512">
  <metadata
     id="metadata16">
    <rdf:RDF>
      <cc:Work
         rdf:about="">
        <dc:format>image/svg+xml</dc:format>
        <dc:type
           rdf:resource="http://purl.org/dc/dcmitype/StillImage" />
        <dc:title></dc:title>
      </cc:Work>
    </rdf:RDF>
  </metadata>
  <defs
     id="defs14" />
  <g
     id="g4"
     clip-rule="evenodd"
     fill-rule="evenodd">
    <path
       id="path6"
       d="M357.5 415.6H153.8c-32.1 0-58.2-26-58.2-58.2V153.8c0-32.1 26.1-58.2 58.2-58.2h203.6c32.1 0 58.2 26 58.2 58.2v203.6c0 32.2-26 58.2-58.1 58.2z"
       fill="#b6aea8" />
    <path
       id="path8"
       d="M468 65.3c-98.4 60.4-169.9 136.6-202 174.9l-78.6-61.6-34.7 28 135.8 138.2c23.4-59.9 97.4-177 187.8-260.2L468 65.3z"
       fill="#6e6e6e" />
    <path
       id="path10"
       d="M325.6 134.7H164.7c-16.6 0-30 13.4-30 30v181.8c0 16.6 13.4 30 30 30h181.8c16.6 0 30-13.4 30-30V238.6l39.1-34.9v153.8c0 32.1-26 58.2-58.2 58.2H153.8c-32.1 0-58.2-26-58.2-58.2V153.8c0-32.1 26-58.2 58.2-58.2h203.6c3.7 0 7.3.4 10.8 1.1l-42.6 38z"
       fill="#6e6e6e" />
  </g>
</svg>
