<?xml version="1.0" encoding="UTF-8"?>
<svg width="75px" height="79px" viewBox="0 0 75 79" version="1.1" xmlns="http://www.w3.org/2000/svg" xmlns:xlink="http://www.w3.org/1999/xlink">
    <!-- Generator: sketchtool 51.3 (57544) - http://www.bohemiancoding.com/sketch -->
    <title>11FB2A8E-9F35-4373-9758-B6D24153FD17</title>
    <desc>Created with sketchtool.</desc>
    <defs></defs>
    <g id="Page-1" stroke="none" stroke-width="1" fill="none" fill-rule="evenodd">
        <g id="Dashboard---ikoner" transform="translate(-896.000000, -821.000000)">
            <rect fill="#FFFFFF" x="0" y="0" width="1440" height="941"></rect>
            <g id="Group-12" transform="translate(903.000000, 827.000000)" stroke-linecap="round" stroke-linejoin="round" stroke-width="3">
                <g id="Group">
                    <polyline id="Stroke-1" stroke="#1B3459" points="18.5154572 52.3577236 0 52.3577236 0 5.6097561 50.5263158 5.6097561 50.5263158 24.8034124"></polyline>
                    <path d="M0,18.699187 L50.5263158,18.699187" id="Stroke-3" stroke="#1B3459"></path>
                    <path d="M9.35672515,0 L9.35672515,11.2195122" id="Stroke-5" stroke="#1B3459"></path>
                    <path d="M41.1695906,0 L41.1695906,11.2195122" id="Stroke-7" stroke="#1B3459"></path>
                    <path d="M62.502924,49.7398374 C62.502924,59.5514524 54.5423234,67.504065 44.7251462,67.504065 C34.907969,67.504065 26.9473684,59.5514524 26.9473684,49.7398374 C26.9473684,39.9301428 34.907969,31.9756098 44.7251462,31.9756098 C54.5423234,31.9756098 62.502924,39.9301428 62.502924,49.7398374 Z" id="Stroke-9" stroke="#2168A8"></path>
                    <polyline id="Stroke-11" stroke="#2168A8" points="54.2690058 50.4878049 43.0409357 50.4878049 43.0409357 39.2682927"></polyline>
                </g>
            </g>
        </g>
    </g>
</svg>