<?xml version="1.0" encoding="UTF-8"?>
<svg width="38px" height="38px" viewBox="0 0 38 38" version="1.1" xmlns="http://www.w3.org/2000/svg" xmlns:xlink="http://www.w3.org/1999/xlink">
    <!-- Generator: sketchtool 51.3 (57544) - http://www.bohemiancoding.com/sketch -->
    <title>3094B0B8-6566-4DEC-BCD5-C0E2BA0BECE7</title>
    <desc>Created with sketchtool.</desc>
    <defs></defs>
    <g id="Page-1" stroke="none" stroke-width="1" fill="none" fill-rule="evenodd">
        <g id="Dashboard---ikoner" transform="translate(-283.000000, -374.000000)">
            <g id="Group-19" transform="translate(284.000000, 375.000000)">
                <g id="Group">
                    <g id="Group-5" stroke="#ffffff" stroke-linecap="round" stroke-linejoin="round" stroke-width="2">
                        <polyline id="Stroke-1" points="10.8270161 4.271919 10.8270161 2.63804839 10.8270161 0.980951613 25.1908871 0.980951613 25.1908871 2.53869355 25.1908871 4.271919"></polyline>
						<polyline id="Stroke-3" points=" 6 12.1017742  0.886209677 12.1017742  0.886209677 34.5967742 35.1308065 34.5967742 35.1308065 12.1017742 30 12.1017742  "></polyline>
                        
                    </g>
                    <polygon id="Fill-6" fill="none" points="7.09677419 34.5967742 29.2741935 34.5967742 29.2741935 5.32258065 7.09677419 5.32258065"></polygon>
                    <polygon id="Stroke-7" stroke="#ffffff" stroke-width="2" stroke-linecap="round" stroke-linejoin="round" points="7.09677419 34.5967742 29.2741935 34.5967742 29.2741935 5.32258065 7.09677419 5.32258065"></polygon>
                    <polygon id="Stroke-9" stroke="#ffffff" stroke-width="2" stroke-linecap="round" stroke-linejoin="round" points="23.9516129 12.5775712 20.2450095 12.5775712 20.2450095 8.87096774 16.1268627 8.87096774 16.1268627 12.5775712 12.4193548 12.5775712 12.4193548 16.6966224 16.1268627 16.6966224 16.1268627 20.4032258 20.2450095 20.4032258 20.2450095 16.6966224 23.9516129 16.6966224"></polygon>
                    <polygon id="Stroke-10" stroke="#ffffff" stroke-width="2" stroke-linecap="round" stroke-linejoin="round" points="14.1935484 34.5967742 22.1774194 34.5967742 22.1774194 28.3870968 14.1935484 28.3870968"></polygon>
                </g>
            </g>
        </g>
    </g>
</svg>