<?xml version="1.0" encoding="UTF-8" standalone="no"?>
<svg
   xmlns:dc="http://purl.org/dc/elements/1.1/"
   xmlns:cc="http://creativecommons.org/ns#"
   xmlns:rdf="http://www.w3.org/1999/02/22-rdf-syntax-ns#"
   xmlns:svg="http://www.w3.org/2000/svg"
   xmlns="http://www.w3.org/2000/svg"
   id="svg835"
   version="1"
   height="36"
   width="36">
  <metadata
     id="metadata841">
    <rdf:RDF>
      <cc:Work
         rdf:about="">
        <dc:format>image/svg+xml</dc:format>
        <dc:type
           rdf:resource="http://purl.org/dc/dcmitype/StillImage" />
        <dc:title></dc:title>
      </cc:Work>
    </rdf:RDF>
  </metadata>
  <defs
     id="defs839" />
  <g
     id="g833"
     fill="#000000">
    <path
       color="#000000"
       id="path829"
       style="marker:none"
       overflow="visible"
       d="M18 0C8.086 0 0 8.086 0 18s8.086 18 18 18 18-8.086 18-18S27.914 0 18 0zm0 4c7.75 0 14 6.25 14 14s-6.25 14-14 14S4 25.75 4 18 10.25 4 18 4z" />
    <path
       id="path831"
       d="M18.25 6.756c-1.105.017-1.969.926-1.969 2.03v11.72a2 2 0 0 0 3.063 1.718l7.281-4.468a2 2 0 1 0-2.094-3.407l-4.25 2.594V8.787a2.002 2.002 0 0 0-2.031-2.031z"
       fill-rule="evenodd" />
  </g>
</svg>
