<svg xmlns="http://www.w3.org/2000/svg" width="40" height="40" opacity=".5">
  <path fill="#eee" d="M4.9 15.1c2.7 0 4.9 2.2 4.9 4.9s-2.2 4.9-4.9 4.9S0 22.7 0 20s2.2-4.9 4.9-4.9"/>
  <path fill="#919191" d="M20 15.1c2.7 0 4.9 2.2 4.9 4.9s-2.2 4.9-4.9 4.9-4.9-2.2-4.9-4.9c-.1-2.7 2.2-4.9 4.9-4.9M20 30.1c2.7 0 4.9 2.2 4.9 4.9 0 2.8-2.2 5-4.9 5s-5-2.2-5-4.9c0-2.8 2.3-5 5-5M20 0c2.7 0 4.9 2.2 4.9 4.9S22.7 9.8 20 9.8s-4.9-2.2-4.9-4.9C15 2.2 17.3 0 20 0M35.1 15.1c2.7 0 4.9 2.2 4.9 4.9s-2.2 4.9-4.9 4.9-4.9-2.2-4.9-4.9c-.1-2.7 2.1-4.9 4.9-4.9"/>
</svg>