<svg xmlns="http://www.w3.org/2000/svg" viewBox="0 0 512 512"><path fill="#FFF" d="M416.858 103.687H16.033C7.215 103.687 0 110.902 0 119.72v272.56c0 8.818 7.215 16.033 16.033 16.033h400.825c8.818 0 16.033-7.215 16.033-16.033V119.72c0-8.818-7.215-16.033-16.033-16.033zm-42.644 32.066L214.298 278.797 54.392 135.753h319.822zM32.066 148.051l114.4 102.337-114.4 108.076V148.051zm16.199 228.196L164.456 266.48l41.826 37.415a12.002 12.002 0 0 0 8.016 3.061 12.01 12.01 0 0 0 8.016-3.061l41.833-37.419 116.195 109.771H48.265zm352.56-13.736L282.137 250.384l118.688-106.166v218.293z"/></svg>