<svg xmlns="http://www.w3.org/2000/svg" xmlns:xlink="http://www.w3.org/1999/xlink" width="185" height="123.014">
    <defs>
        <path id="a" d="M0 0v122h185V0z"/>
    </defs>
    <g fill="none" fill-rule="evenodd">
        <path fill="#7cb3df" d="M69 68l5.826-5.077C78.463 59.754 83.188 58 88.086 58c4.899 0 9.625 1.754 13.26 4.923L107 67.848"/>
        <path fill="#7cb3df" d="M87.948 80c7.521 0 14.295-4.537 19.052-11.784l-5.653-5.11a19.774 19.774 0 0 0-26.52 0L69 68.373C73.752 75.528 80.48 80 87.948 80"/>
        <path stroke="#1b3459" stroke-width="2" d="M69 67l5.827-5.078C78.464 58.753 83.188 57 88.087 57c4.899 0 9.624 1.753 13.26 4.922L107 66.848"/>
        <path stroke="#1b3459" stroke-linecap="round" stroke-linejoin="round" stroke-width="2" d="M107 66.848l-5.653-4.925C97.711 58.754 92.986 57 88.087 57c-4.899 0-9.623 1.754-13.26 4.923L69 67M180 49.144L170.827 31h-34.654L127 49.144V68h53z"/>
        <path stroke="#1b3459" stroke-linecap="round" stroke-linejoin="round" stroke-width="2" d="M134 49h38l-5.997-12h-26.005zM160 31l-2.367-5h-10.265L145 31"/>
        <mask id="b" fill="#fff">
            <use width="100%" height="100%" xlink:href="#a"/>
        </mask>
        <path stroke="#1b3459" stroke-linecap="round" stroke-linejoin="round" stroke-width="2" d="M173 58h-7v5h7zM141 58h-7v5h7zM161 58h-16v5h16zM136 68h-9v7h9zM179 68h-9v7h9zM128.318 47H123v-5h8M178.737 47H184v-5h-8M62 32v9.853C62 62.368 73.865 79 88.5 79S115 62.368 115 41.853v-9.44" mask="url(#b)"/>
        <path fill="#fefefe" d="M82.018 63c-.006.114-.018.227-.018.341C82 67.02 84.91 70 88.5 70s6.5-2.981 6.5-6.659c0-.114-.011-.227-.017-.341z" mask="url(#b)"/>
        <path stroke="#1b3459" stroke-linecap="round" stroke-linejoin="round" stroke-width="2" d="M82.018 63c-.006.114-.018.227-.018.341C82 67.02 84.91 70 88.5 70s6.5-2.981 6.5-6.659c0-.114-.011-.227-.017-.341zM103 40c-.795-.594-2.279-1-4-1s-3.205.406-4 1M81 40c-.795-.594-2.279-1-4-1s-3.205.406-4 1M87 51h3M138 122v-13.883C138 97.053 129.042 88 118.096 88h-14.914v.556c0 1.31-7.08 20.121-15.122 20.121-8.041 0-15.242-18.008-15.242-20.121V88H57.904C46.958 88 38 97.053 38 108.117V122M73 73v15M103 88V73" mask="url(#b)"/>
        <path fill="#7cb3df" d="M87.702 1C82.227 1.287 77.78 2.476 75 5.121l4.997 11.876C90.579 16.989 98.396 34.023 118 32.952 118 13.827 106.91 1 87.702 1" mask="url(#b)"/>
        <path stroke="#1b3459" stroke-width="2" d="M87.702 1C82.227 1.287 77.78 2.476 75 5.121l4.997 11.876C90.579 16.989 98.396 34.023 118 32.952 118 13.827 106.91 1 87.702 1z" mask="url(#b)"/>
        <path fill="#7cb3df" d="M70.37 5.12c-4.685.952-8.093 4.67-10.799 8.116-3.805 4.545-5.261 11.126-.88 22.764l7.786-8.95c1.934-2.22 4.335-3.993 7.057-5.079A8.729 8.729 0 0 0 79 13.848c0-4.82-3.956-9.678-8.63-8.728" mask="url(#b)"/>
        <path stroke="#1b3459" stroke-width="2" d="M70.37 5.12c-4.685.952-8.093 4.67-10.799 8.116-3.805 4.545-5.261 11.126-.88 22.764l7.786-8.95c1.934-2.22 4.335-3.993 7.057-5.079A8.729 8.729 0 0 0 79 13.848c0-4.82-3.956-9.678-8.63-8.728z" mask="url(#b)"/>
        <path stroke="#1b3459" stroke-linecap="round" stroke-linejoin="round" stroke-width="2" d="M79 8.69s5.272-5.764 14.208 3.997c4.463 5.37 7.436 5.89 9.792 6.313" mask="url(#b)"/>
        <g mask="url(#b)">
            <path fill="#fefefe" d="M38.096 40.577h8.65a6.131 6.131 0 0 1 6.131 6.13v49.608a6.13 6.13 0 0 1-6.13 6.13H7.13A6.13 6.13 0 0 1 1 96.315V46.708a6.13 6.13 0 0 1 6.13-6.131h8.652"/>
            <path stroke="#114985" stroke-linecap="round" stroke-linejoin="round" stroke-width="2" d="M38.096 40.577h8.65a6.131 6.131 0 0 1 6.131 6.13v49.608a6.13 6.13 0 0 1-6.13 6.13H7.13A6.13 6.13 0 0 1 1 96.315V46.708a6.13 6.13 0 0 1 6.13-6.131h8.652"/>
        </g>
        <path stroke="#114985" stroke-linecap="round" stroke-linejoin="round" stroke-width="2" d="M33.543 37.905c-.26-2.74-3.107-4.905-6.62-4.905-3.512 0-6.36 2.165-6.62 4.905H16V45h22v-7.095z" mask="url(#b)"/>
        <path stroke="#7cb3df" stroke-linecap="round" stroke-linejoin="round" stroke-width="2" d="M10 58.458L12.473 62 17 56M22 60h22M10 74.458L12.473 78 17 72M22 75h22M10 89.458L12.473 93 17 87M22 91h22" mask="url(#b)"/>
        <path stroke="#1b3459" stroke-linecap="round" stroke-linejoin="round" stroke-width="2" d="M109 108.535h5.464V114h6.072v-5.465H126v-6.07h-5.464V97h-6.072v5.465H109z" mask="url(#b)"/>
    </g>
</svg>