<svg xmlns="http://www.w3.org/2000/svg" width="134.771" height="287.309" preserveAspectRatio="xMinYMin meet" viewBox="0 0 134.771 287.309">
    <path fill="#034584" d="M102.583.013C84.8.013 70.363 14.417 70.363 32.2c0 17.78 14.437 32.18 32.22 32.18 17.784 0 32.188-14.41 32.188-32.19 0-17.78-14.4-32.19-32.183-32.19zm-26.03 78.125c-26.783 0-52.12 17.245-75.97 51.75l8.22 3.906c9.773-12.695 18.266-21.46 25.5-26.344 2.54-1.96 5.2-2.94 7.936-2.94 1.56 0 3.002.63 4.37 1.93 1.36 1.3 2.06 2.6 2.06 3.9 0 2.6-1.27 7.9-3.82 15.87l-19.57 56.5-21.19 60.66C1.355 250.86 0 257.02 0 261.9c0 7.327 3.03 13.39 9.09 18.19 6.06 4.8 14.147 7.22 24.313 7.22 26.78 0 52.12-17.246 75.97-51.75l-8.22-3.908c-9.775 12.7-18.267 21.46-25.5 26.35-2.542 1.95-5.2 2.936-7.94 2.936-1.563 0-3.005-.634-4.374-1.936-1.37-1.3-2.06-2.605-2.06-3.907 0-2.604 1.27-7.9 3.81-15.874l19.56-56.5 21.19-60.65c2.733-7.49 4.09-13.65 4.09-18.53 0-7.33-3.03-13.39-9.09-18.19-6.06-4.8-14.15-7.22-24.31-7.22z"/>
</svg>