<svg xmlns="http://www.w3.org/2000/svg" viewBox="0 0 138 138" height="17" width="16" preserveAspectRatio="xMaxYMax meet">
    <path fill="#ffffff" d="M43.125 103.5H86.25v8.625H43.125zm0-17.25h51.75v8.625h-51.75zM34.5 77.625v51.75h69v-51.75zm86.25-32.775c-3.88 0-6.9 3.02-6.9 6.9 0 3.88 3.02 6.9 6.9 6.9 3.88 0 6.9-3.02 6.9-6.9 0-3.88-3.02-6.9-6.9-6.9zM8.625 34.5h120.75c4.744 0 8.625 3.88 8.625 8.625v51.75c0 4.744-3.88 8.625-8.625 8.625h-17.25v25.875c0 4.744-3.88 8.625-8.625 8.625h-69c-4.744 0-8.625-3.88-8.625-8.625V103.5H8.625C3.88 103.5 0 99.62 0 94.875v-51.75C0 38.38 3.88 34.5 8.625 34.5zM34.5 0h69c4.744 0 8.625 3.88 8.625 8.625v17.25H103.5V8.625h-69v17.25h-8.625V8.625C25.875 3.88 29.755 0 34.5 0z"/>
</svg>