<?xml version="1.0" encoding="UTF-8"?>
<svg width="63px" height="38px" viewBox="0 0 63 38" version="1.1" xmlns="http://www.w3.org/2000/svg" xmlns:xlink="http://www.w3.org/1999/xlink">
    <!-- Generator: sketchtool 51.3 (57544) - http://www.bohemiancoding.com/sketch -->
    <title>64064943-AD1D-4B90-A4FB-D1717EFD1773</title>
    <desc>Created with sketchtool.</desc>
    <defs></defs>
    <g id="Page-1" stroke="none" stroke-width="1" fill="none" fill-rule="evenodd">
        <g id="Dashboard---ikoner" transform="translate(-610.000000, -843.000000)">
            <rect fill="#FFFFFF" x="0" y="0" width="1440" height="941"></rect>
            <g id="Group-3" transform="translate(615.000000, 848.000000)">
                <g id="Group-2">
                    <path d="M14.2941176,13.5 C14.2941176,20.9556117 20.3388695,27 27.7949297,27 C35.2493658,27 41.2941176,20.9556117 41.2941176,13.5 C41.2941176,6.04438831 35.2493658,0 27.7949297,0 C20.3388695,0 14.2941176,6.04438831 14.2941176,13.5 Z" id="Stroke-1" stroke="#2168A8" stroke-width="3" stroke-linecap="round" stroke-linejoin="round"></path>
                    <path d="M30.1764706,13.5 C30.1764706,14.8150588 29.1091765,15.8823529 27.7941176,15.8823529 C26.4773262,15.8823529 25.4117647,14.8150588 25.4117647,13.5 C25.4117647,12.1832086 26.4773262,11.1176471 27.7941176,11.1176471 C29.1091765,11.1176471 30.1764706,12.1832086 30.1764706,13.5" id="Fill-3" fill="#2168A8"></path>
                    <path d="M27.0007906,0 C16.0388838,0 6.28653413,5.28335038 0,13.5008123 C6.28653413,21.715025 16.0388838,27 27.0007906,27 C37.9611162,27 47.715047,21.715025 54,13.5008123 C47.715047,5.28335038 37.9611162,0 27.0007906,0 Z" id="Stroke-5" stroke="#1B3459" stroke-width="2.5" stroke-linecap="round" stroke-linejoin="round"></path>
                </g>
            </g>
        </g>
    </g>
</svg>