<?xml version="1.0" encoding="UTF-8"?>
<svg width="46px" height="47px" viewBox="0 0 46 47" version="1.1" xmlns="http://www.w3.org/2000/svg" xmlns:xlink="http://www.w3.org/1999/xlink">
    <!-- Generator: sketchtool 51.3 (57544) - http://www.bohemiancoding.com/sketch -->
    <title>3632D43A-CDFC-4D12-A922-CBA130CEFF3E</title>
    <desc>Created with sketchtool.</desc>
    <defs></defs>
    <g id="Page-1" stroke="none" stroke-width="1" fill="none" fill-rule="evenodd">
        <g id="Dashboard---ikoner" transform="translate(-1206.000000, -494.000000)">
            <rect fill="#FFFFFF" x="0" y="0" width="1440" height="1549"></rect>
            <g id="Group-15-Copy-5" transform="translate(1209.000000, 497.000000)">
                <g id="Group">
                    <circle id="Oval-2" stroke="#714246" stroke-width="2" fill="#f6ded7" cx="20" cy="20" r="20"></circle>
                    <g id="Page-1-Copy-2" transform="translate(10.000000, 8.000000)" stroke="#714246" stroke-linecap="round" stroke-linejoin="round" stroke-width="1.5">
                        <path d="M12.4773529,19.9289706 L12.4773529,11.6216176" id="Stroke-1"></path>
                        <path d="M9.62808824,18.5775 L9.62808824,12.9730882" id="Stroke-2"></path>
                        <path d="M6.77735294,19.9289706 L6.77735294,11.6216176" id="Stroke-3"></path>
                        <g id="Group-10" transform="translate(0.000000, 1.220882)">
                            <path d="M16.3060294,7.56220588 L16.2751471,18.8680882 C16.2751471,21.0269118 14.5089706,22.7930882 12.3516176,22.7930882 L6.87367647,22.7930882 C4.71485294,22.7930882 2.94867647,21.0269118 2.94867647,18.8680882 L2.97808824,7.56220588" id="Stroke-4"></path>
                            <path d="M16.5344118,7.56220588 L2.71970588,7.56220588 C1.62852941,7.56220588 0.735882353,6.66955882 0.735882353,5.57691176 L0.735882353,5.21955882 C0.735882353,4.12838235 1.62852941,3.23573529 2.71970588,3.23573529 L16.5344118,3.23573529 C17.6255882,3.23573529 18.5197059,4.12838235 18.5197059,5.21955882 L18.5197059,5.57691176 C18.5197059,6.66955882 17.6255882,7.56220588 16.5344118,7.56220588 Z" id="Stroke-6"></path>
                            <path d="M6.1125,3.23529412 C6.1125,1.99705882 7.16397059,0.985294118 8.44926471,0.985294118 L10.8051471,0.985294118 C12.0904412,0.985294118 13.1419118,1.99705882 13.1419118,3.23529412" id="Stroke-8"></path>
                        </g>
                    </g>
                </g>
            </g>
        </g>
    </g>
</svg>