<?xml version="1.0" encoding="UTF-8"?>
<svg width="56px" height="75px" viewBox="0 0 56 75" version="1.1" xmlns="http://www.w3.org/2000/svg" xmlns:xlink="http://www.w3.org/1999/xlink">
    <!-- Generator: sketchtool 51.3 (57544) - http://www.bohemiancoding.com/sketch -->
    <title>B7955A0C-F052-4E86-8B86-EBACB932A7AF</title>
    <desc>Created with sketchtool.</desc>
    <defs></defs>
    <g id="Page-1" stroke="none" stroke-width="1" fill="none" fill-rule="evenodd">
        <g id="Dashboard---ikoner" transform="translate(-615.000000, -704.000000)">
            <rect fill="#FFFFFF" x="0" y="0" width="1440" height="941"></rect>
            <g id="Group-5" transform="translate(623.000000, 708.000000)" stroke-linecap="round" stroke-linejoin="round" stroke-width="3">
                <path d="M23,69 L23,61.5749248 C23,58.8455644 25.0603291,56.6153846 27.577925,56.6153846 L28.5450183,56.6153846 L37.3259445,56.6153846 L37.3644881,56.6153846 L41.422075,56.6153846 C43.9396709,56.6153846 46,58.8455644 46,61.5749248 L46,69" id="Stroke-1" stroke="#2168A8"></path>
                <path d="M40.6923077,44.2307692 C40.6923077,47.1611521 38.3149983,49.5384615 35.3846154,49.5384615 C32.4524191,49.5384615 30.0769231,47.1611521 30.0769231,44.2307692 C30.0769231,41.298573 32.4524191,38.9230769 35.3846154,38.9230769 C38.3149983,38.9230769 40.6923077,41.298573 40.6923077,44.2307692 Z" id="Stroke-3" stroke="#2168A8"></path>
                <polyline id="Stroke-5" stroke="#1B3459" points="35.3846154 29.589019 35.3846154 0 0 0 0 60.1538462 18.2874951 50.9623636"></polyline>
            </g>
        </g>
    </g>
</svg>