<?xml version="1.0" encoding="UTF-8"?>
<svg width="60px" height="69px" viewBox="0 0 60 69" version="1.1" xmlns="http://www.w3.org/2000/svg" xmlns:xlink="http://www.w3.org/1999/xlink">
    <!-- Generator: sketchtool 51.3 (57544) - http://www.bohemiancoding.com/sketch -->
    <title>7920E9A1-A14E-4D5F-8A12-CC0CD5C35311</title>
    <desc>Created with sketchtool.</desc>
    <defs></defs>
    <g id="Page-1" stroke="none" stroke-width="1" fill="none" fill-rule="evenodd">
        <g id="Dashboard---ikoner" transform="translate(-881.000000, -115.000000)">
            <rect fill="#FFFFFF" x="0" y="0" width="1440" height="941"></rect>
            <g id="Group-22" transform="translate(889.000000, 119.000000)">
                <path d="M8.38095238,33.6842105 L8.38095238,25.4810375 C8.38095238,22.4661841 10.7269303,20 13.5948345,20 L14.6938391,20 L24.6938391,20 L24.7395749,20 L29.3588916,20 C32.2254506,20 34.5714286,22.4661841 34.5714286,25.4810375 L34.5714286,33.6842105" id="Stroke-1" stroke="#2168A8" stroke-width="3" stroke-linecap="round" stroke-linejoin="round"></path>
                <path d="M29.3333333,6.31578947 C29.3333333,9.80322264 26.5198934,12.6315789 23.047619,12.6315789 C19.5767927,12.6315789 16.7619048,9.80322264 16.7619048,6.31578947 C16.7619048,2.82835631 19.5767927,0 23.047619,0 C26.5198934,0 29.3333333,2.82835631 29.3333333,6.31578947 Z" id="Stroke-3" stroke="#2168A8" stroke-width="3" stroke-linecap="round" stroke-linejoin="round"></path>
                <path d="M39.8923292,53.6842105 L4.10767076,53.6842105 C1.84845184,53.6842105 0,51.8502156 0,49.6086662 L0,31.4439653 C0,29.202416 1.84845184,27.3684211 4.10767076,27.3684211 L39.8923292,27.3684211 C42.1501789,27.3684211 44,29.202416 44,31.4439653 L44,49.6086662 C44,51.8502156 42.1501789,53.6842105 39.8923292,53.6842105" id="Fill-5" fill="#FEFEFE"></path>
                <path d="M39.8923292,53.6842105 L4.10767076,53.6842105 C1.84845184,53.6842105 0,51.8502156 0,49.6086662 L0,31.4439653 C0,29.202416 1.84845184,27.3684211 4.10767076,27.3684211 L39.8923292,27.3684211 C42.1501789,27.3684211 44,29.202416 44,31.4439653 L44,49.6086662 C44,51.8502156 42.1501789,53.6842105 39.8923292,53.6842105 Z" id="Stroke-7" stroke="#1B3459" stroke-width="3"></path>
                <path d="M25.1428571,40 C25.1428571,41.7443609 23.500545,43.1578947 21.4768619,43.1578947 C19.4504931,43.1578947 17.8095238,41.7443609 17.8095238,40 C17.8095238,38.2556391 19.4504931,36.8421053 21.4768619,36.8421053 C23.500545,36.8421053 25.1428571,38.2556391 25.1428571,40" id="Fill-9" fill="#2168A8"></path>
                <path d="M0.092552381,58.9476842 L43.7750921,58.9476842" id="Stroke-11" stroke="#1B3459" stroke-width="3" stroke-linecap="round" stroke-linejoin="round"></path>
            </g>
        </g>
    </g>
</svg>