<?xml version="1.0" encoding="UTF-8"?>
<svg width="32px" height="40px" viewBox="0 0 32 40" version="1.1" xmlns="http://www.w3.org/2000/svg" xmlns:xlink="http://www.w3.org/1999/xlink">
    <!-- Generator: sketchtool 51.3 (57544) - http://www.bohemiancoding.com/sketch -->
    <title>A69D6F8B-AD98-4288-80EE-DC7650600885</title>
    <desc>Created with sketchtool.</desc>
    <defs></defs>
    <g id="Page-1" stroke="none" stroke-width="1" fill="none" fill-rule="evenodd" stroke-linecap="round" stroke-linejoin="round">
        <g id="Dashboard---ikoner" transform="translate(-130.000000, -205.000000)" stroke-width="2">
            <g id="Group-17" transform="translate(131.000000, 206.000000)">
                <g id="Group-17-Copy">
                    <g id="Group-16" transform="translate(0.306452, 0.870968)">
                        <path d="M17.7419355,36.3709677 L17.7419355,32.6483975 C17.7419355,31.2796795 18.7749897,30.1612903 20.0373187,30.1612903 L20.5222216,30.1612903 L24.9258787,30.1612903 L24.9452045,30.1612903 L26.9796888,30.1612903 C28.2411394,30.1612903 29.2741935,31.2796795 29.2741935,32.6483975 L29.2741935,36.3709677" id="Stroke-1" stroke="#2168A8"></path>
                        <path d="M26.6129032,23.9516129 C26.6129032,25.4209143 25.4209143,26.6129032 23.9516129,26.6129032 C22.4823115,26.6129032 21.2903226,25.4209143 21.2903226,23.9516129 C21.2903226,22.4823115 22.4823115,21.2903226 23.9516129,21.2903226 C25.4209143,21.2903226 26.6129032,22.4823115 26.6129032,23.9516129 Z" id="Stroke-3" stroke="#2168A8"></path>
                        <polyline id="Stroke-5" stroke="#1B3459" points="23.9516129 17.2769393 23.9516129 7.88559766 16.8247341 8.01217509 16.8745351 0 0 0 0 31.0483871 13.9513943 31.0483871"></polyline>
                        <path d="M16.8548387,0 L23.9516129,7.98387097" id="Stroke-7" stroke="#1B3459"></path>
                    </g>
                </g>
                <g id="Group-21" transform="translate(7.000000, 15.000000)" stroke="#2168A8">
                    <path d="M0,0 L11.5322581,0" id="Stroke-6-Copy"></path>
                    <path d="M0,4 L11.5322581,4" id="Stroke-7-Copy"></path>
                    <path d="M0,8 L8.87096774,8" id="Stroke-8-Copy"></path>
                </g>
            </g>
        </g>
    </g>
</svg>