<svg xmlns="http://www.w3.org/2000/svg" width="80.4" height="96.1">
    <g fill="#034584" stroke="#034584" stroke-width="1.2">
        <path d="M48 25.5l6 3v29.1l2.5.7V27.7c0-.5-.3-.9-.7-1.1l-9.5-4.7v-1.5l2.4-4.8c.1-.2.2-.3.2-.6V7.4c0-.2-.1-.4-.2-.6-.1-.3-2.9-5.8-8.8-5.8s-8.6 5.5-8.8 5.8c-.1.2-.2.3-.2.6V15c0 .2.1.4.2.6l2.4 4.8v1.5L24 26.6c-.4.2-.7.7-.7 1.1v30.5l2.6-.5V28.6l6-3 4-2.2v-.1c.1-.1.1-.3.1-.3v-2.7c0-.2-.1-.4-.2-.6l-2.4-4.8v-7c.5-.9 2.7-4.1 6.4-4.1 3.6 0 5.8 3.2 6.4 4.1v7l-2.4 4.8c-.1.2-.2.3-.2.6V23c0 .1.1.3.1.3v.1z"/>
        <path d="M53.7 57.5V28.8l-5.9-2.9-4.2-2.4-.1-.2c0-.2-.1-.3-.1-.4v-2.7c0-.3.1-.5.2-.8l2.3-4.7V7.9C45.3 6.9 43.2 4 40 4c-3.4 0-5.3 2.8-5.9 3.9v6.8l2.3 4.7c.2.2.2.4.2.7v2.7c0 .2-.1.3-.1.4v.1l-.1.1-4.1 2.4-5.9 2.9v28.8l-3.3.8V27.7c0-.6.3-1.2.9-1.5l9.2-4.7v-1l-2.3-4.7c-.1-.3-.2-.5-.2-.8V7.4c0-.3.1-.5.2-.8.1-.3 3-6 9.1-6 6 0 9 5.8 9.1 6 .1.3.2.5.2.8V15c0 .3-.1.5-.2.8l-2.4 4.7v1.1l9.2 4.7c.6.3.9.9.9 1.5v30.5m-.6-30.6c0-.3-.2-.6-.5-.8L46 22.1v-1.8l2.4-4.9c.1-.1.1-.3.1-.4V7.4c0-.2 0-.3-.1-.4-.1-.3-2.8-5.6-8.4-5.6-5.6 0-8.3 5.3-8.4 5.6-.1.1-.1.3-.1.4V15c0 .2 0 .3.1.4l2.4 4.9v1.8l-9.7 4.8c-.3.2-.5.4-.5.8v30.5l1.8-.3V28.2l6.3-3.1 3.8-2.2c0-.1 0-.1.1-.2V20c0-.2 0-.3-.1-.4l-2.4-4.9V7.5l.1-.1c.6-1 2.8-4.3 6.7-4.3 3.8 0 6.1 3.3 6.7 4.3l.1.1v7.2l-2.6 4.9c-.1.1-.1.3-.1.4v2.7c0 .1 0 .2.1.3l3.9 2.2 6.3 3.1"/>
    </g>
    <path fill="#034584" d="M47.2 22.6h-2.9l2.5 5.1c0 .1-.1.1-.1.2l-4.4 8.7h-3.7l-4.4-8.7c0-.1-.1-.2-.1-.2l2.5-5.1h-2.9l-2.3 4.5c.1.1 0 .4.1.6 0 .2 0 .3.1.5l5.3 10.3c.2.4.6.6 1 .6h1.4v9.3c-.8.4-1.3 1.3-1.3 2.2 0 1.4 1.1 2.5 2.5 2.5S43 52 43 50.6c0-1-.5-1.7-1.3-2.2v-9.3h1.5c.4 0 .8-.2 1-.6l5.2-10.3c.1-.2.1-.4.1-.5 0-.2 0-.3-.1-.5l-2.2-4.6z"/>
</svg>