<?xml version="1.0" encoding="utf-8"?>
<!-- Generator: Adobe Illustrator 19.1.0, SVG Export Plug-In . SVG Version: 6.00 Build 0)  -->
<svg version="1.1" id="Layer_1" xmlns="http://www.w3.org/2000/svg" xmlns:xlink="http://www.w3.org/1999/xlink" x="0px" y="0px"
	 viewBox="0 0 235.1 34" style="enable-background:new 0 0 235.1 34;" xml:space="preserve" preserveAspectRatio="xMinyMin meet">
<style type="text/css">
	.st0{fill:#7AB2E1;}
	.st1{fill:#004B93;}
</style>
<g>
	<g>
		<circle class="st0" cx="17" cy="4.2" r="4.2"/>
		<path class="st0" d="M21.2,17c0,2.3-1.9,4.2-4.2,4.2c-2.3,0-4.2-1.9-4.2-4.2c0-2.3,1.9-4.2,4.2-4.2C19.3,12.8,21.2,14.7,21.2,17z"
			/>
		<path class="st0" d="M8.4,17c0,2.3-1.9,4.2-4.2,4.2C1.9,21.2,0,19.3,0,17c0-2.3,1.9-4.2,4.2-4.2C6.5,12.8,8.4,14.7,8.4,17z"/>
		<path class="st1" d="M34,17c0,2.3-1.9,4.2-4.2,4.2c-2.3,0-4.2-1.9-4.2-4.2c0-2.3,1.9-4.2,4.2-4.2C32.1,12.8,34,14.7,34,17z"/>
		<circle class="st1" cx="17" cy="29.8" r="4.2"/>
	</g>
</g>
<g>
	<path class="st1" d="M52.9,11.1c-1.4-0.6-2.5-0.9-3.4-0.9c-1.2,0-1.9,0.5-1.9,1.2c0,0.6,0.3,0.9,1.3,1.4c2,1.1,3.3,1.9,4,2.5
		c0.6,0.6,0.9,1.4,0.9,2.4c0,2.4-1.7,3.7-4.6,3.7c-0.4,0-0.8,0-1.2-0.1c-0.9-0.1-1.4-0.3-2.8-0.9c-0.2-0.1-0.5-0.2-0.9-0.4l1.1-2.3
		c1,0.5,1.4,0.7,1.9,0.9c0.7,0.2,1.4,0.4,1.9,0.4c1.2,0,1.9-0.5,1.9-1.3c0-0.6-0.3-0.9-1.2-1.4l-2-1.2c-2.3-1.3-3.1-2.2-3.1-3.7
		c0-0.7,0.2-1.3,0.5-1.8c0.2-0.3,0.6-0.7,1-1c1-0.7,1.8-0.9,3.3-0.9c0.9,0,1.7,0.1,2.5,0.3c0.6,0.2,1,0.3,1.9,0.8L52.9,11.1z"/>
	<path class="st1" d="M61,15.5v5.7h-2.5v-5.7l-4-7.5h2.8l2.6,5.2L62.7,8h2.8L61,15.5z"/>
	<path class="st1" d="M74,21.2l-4.4-6.3v6.3h-2.5V8h2.5v6.2L73.8,8h2.9l-4.5,6.4l4.8,6.8H74z"/>
	<path class="st1" d="M78.7,21.2V8h8v2.1h-5.5v3.3h4.5v2.1h-4.5V19H87v2.1H78.7z"/>
	<path class="st1" d="M98.7,21.2v-5.7H92v5.7h-2.5V8H92v5.3h6.8V8h2.5v13.2H98.7z"/>
	<path class="st1" d="M113.8,20.5c-1,0.7-2.1,1-3.7,1c-1.7,0-2.7-0.3-3.7-1c-1.4-0.9-1.8-2-1.8-4.5V8h2.5v8.2c0,2,1,2.9,3.1,2.9
		c1.9,0,2.9-1,2.9-2.9V8h2.5v8C115.6,18.4,115.2,19.5,113.8,20.5z"/>
	<path class="st1" d="M126.2,11.1c-1.4-0.6-2.5-0.9-3.4-0.9c-1.2,0-1.9,0.5-1.9,1.2c0,0.6,0.3,0.9,1.3,1.4c2,1.1,3.3,1.9,4,2.5
		c0.6,0.6,0.9,1.4,0.9,2.4c0,2.4-1.7,3.7-4.6,3.7c-0.4,0-0.8,0-1.2-0.1c-0.9-0.1-1.4-0.3-2.8-0.9c-0.2-0.1-0.5-0.2-0.9-0.4l1.1-2.3
		c1,0.5,1.4,0.7,1.9,0.9c0.7,0.2,1.4,0.4,1.9,0.4c1.2,0,1.9-0.5,1.9-1.3c0-0.6-0.3-0.9-1.2-1.4l-2-1.2c-2.3-1.3-3.1-2.2-3.1-3.7
		c0-0.7,0.2-1.3,0.5-1.8c0.2-0.3,0.6-0.7,1-1c1-0.7,1.8-0.9,3.3-0.9c0.9,0,1.7,0.1,2.5,0.3c0.6,0.2,1,0.3,1.9,0.8L126.2,11.1z"/>
	<path class="st1" d="M137,21.2l-1-3.3h-4.4l-1.1,3.3h-2.6L132.6,8h2.3l4.8,13.2H137z M133.7,11l-1.5,4.8h3.1L133.7,11z"/>
	<path class="st1" d="M149.1,15.6c-0.9,0.8-2.1,1.1-3.9,1.1c-0.5,0-0.8,0-1.2-0.1v4.5h-2.5V8h4.5c1.7,0,2.7,0.3,3.5,1.1
		c0.7,0.7,1.1,1.7,1.1,3C150.6,13.5,150.1,14.7,149.1,15.6z M145.7,10.1H144v4.4l0.3,0h0.3c0.3,0,0.5,0,0.6,0c2,0,2.8-0.7,2.8-2.3
		C148,10.8,147.3,10.1,145.7,10.1z"/>
	<path class="st1" d="M158.4,21.4c-4.1,0-7-2.8-7-6.9c0-4.1,2.8-6.8,7-6.8c4.2,0,7,2.8,7,6.8C165.4,18.6,162.5,21.4,158.4,21.4z
		 M158.4,9.9c-2.5,0-4.3,2-4.3,4.7c0,2.7,1.8,4.7,4.3,4.7c2.5,0,4.3-2,4.3-4.7C162.7,11.9,160.9,9.9,158.4,9.9z"/>
	<path class="st1" d="M172.7,10.1v11.1h-2.5V10.1h-4V8h10.4v2.1H172.7z"/>
	<path class="st1" d="M178.6,21.2V8h8v2.1h-5.5v3.3h4.5v2.1h-4.5V19h5.8v2.1H178.6z"/>
	<path class="st1" d="M196.2,21.2l-4.4-6.3v6.3h-2.5V8h2.5v6.2l4.1-6.2h2.9l-4.5,6.4l4.8,6.8H196.2z"/>
	<path class="st1" d="M200.8,21.2V8h8v2.1h-5.5v3.3h4.5v2.1h-4.5V19h5.8v2.1H200.8z"/>
	<path class="st1" d="M220.4,21.3l-5.7-8.5c0-0.1-0.1-0.2-0.3-0.5c-0.1-0.2-0.1-0.3-0.2-0.3c-0.1-0.2-0.1-0.2-0.2-0.5v9.7h-2.4V8
		h2.9l5.5,8.7c0,0,0.1,0.1,0.1,0.3c0.1,0.1,0.1,0.2,0.1,0.3l0.1,0.3l0.1,0.2V8h2.4v13.3H220.4z"/>
	<path class="st1" d="M226.8,21.2V8h8v2.1h-5.5v3.3h4.5v2.1h-4.5V19h5.8v2.1H226.8z"/>
</g>
</svg>
