<?xml version="1.0" encoding="UTF-8" standalone="no"?>
<!-- Generator: Adobe Illustrator 18.1.1, SVG Export Plug-In . SVG Version: 6.00 Build 0)  -->

<svg
   xmlns:dc="http://purl.org/dc/elements/1.1/"
   xmlns:cc="http://creativecommons.org/ns#"
   xmlns:rdf="http://www.w3.org/1999/02/22-rdf-syntax-ns#"
   xmlns:svg="http://www.w3.org/2000/svg"
   xmlns="http://www.w3.org/2000/svg"
   xmlns:sodipodi="http://sodipodi.sourceforge.net/DTD/sodipodi-0.dtd"
   xmlns:inkscape="http://www.inkscape.org/namespaces/inkscape"
   version="1.1"
   id="Layer_1"
   x="0px"
   y="0px"
   viewBox="0 0 236.2 42.7"
   enable-background="new 0 0 346.2 42.7"
   xml:space="preserve"
   sodipodi:docname="DesignSystemLogo111.svg"
   width="236.20001"
   height="42.700001"
   inkscape:version="0.92.4 (5da689c313, 2019-01-14)"><metadata
   id="metadata924"><rdf:RDF><cc:Work
       rdf:about=""><dc:format>image/svg+xml</dc:format><dc:type
         rdf:resource="http://purl.org/dc/dcmitype/StillImage" /><dc:title /></cc:Work></rdf:RDF></metadata><defs
   id="defs922" /><sodipodi:namedview
   pagecolor="#ffffff"
   bordercolor="#666666"
   borderopacity="1"
   objecttolerance="10"
   gridtolerance="10"
   guidetolerance="10"
   inkscape:pageopacity="0"
   inkscape:pageshadow="2"
   inkscape:window-width="3000"
   inkscape:window-height="1875"
   id="namedview920"
   showgrid="false"
   inkscape:snap-bbox="false"
   inkscape:zoom="5.6568543"
   inkscape:cx="169.36941"
   inkscape:cy="18.364379"
   inkscape:window-x="-13"
   inkscape:window-y="-13"
   inkscape:window-maximized="1"
   inkscape:current-layer="Layer_1" />















































<path
   d="m 26.6,5.3 c 0,2.9 -2.4,5.3 -5.3,5.3 C 18.4,10.6 16,8.2 16,5.3 16,2.4 18.4,0 21.3,0 c 2.9,0 5.3,2.4 5.3,5.3"
   id="path909"
   inkscape:connector-curvature="0"
   style="fill:#68addf" />
<path
   d="m 26.6,21.4 c 0,2.9 -2.4,5.3 -5.3,5.3 -2.9,0 -5.3,-2.4 -5.3,-5.3 0,-2.9 2.4,-5.3 5.3,-5.3 2.9,0 5.3,2.3 5.3,5.3"
   id="path911"
   style="fill:#68addf;fill-opacity:1"
   inkscape:connector-curvature="0" />
<path
   d="m 10.5,21.4 c 0,2.9 -2.4,5.3 -5.3,5.3 -2.9,0 -5.3,-2.4 -5.3,-5.3 0,-2.9 2.4,-5.3 5.3,-5.3 3,0 5.3,2.3 5.3,5.3"
   id="path913"
   style="fill:#00529b;fill-opacity:1"
   inkscape:connector-curvature="0" />
<path
   d="m 42.7,21.4 c 0,2.9 -2.4,5.3 -5.3,5.3 -2.9,0 -5.3,-2.4 -5.3,-5.3 0,-2.9 2.4,-5.3 5.3,-5.3 2.9,0 5.3,2.3 5.3,5.3"
   id="path915"
   inkscape:connector-curvature="0"
   style="fill:#68addf" />
<path
   d="m 26.6,37.5 c 0,2.9 -2.4,5.3 -5.3,5.3 -2.9,0 -5.3,-2.4 -5.3,-5.3 0,-2.9 2.4,-5.3 5.3,-5.3 2.9,0 5.3,2.3 5.3,5.3"
   id="path917"
   inkscape:connector-curvature="0"
   style="fill:#68addf" />
<path
   style="font-style:normal;font-variant:normal;font-weight:normal;font-stretch:normal;font-size:40px;line-height:1.25;font-family:'Open Sans';-inkscape-font-specification:'Open Sans';letter-spacing:0px;word-spacing:0px;fill:#000000;fill-opacity:1;stroke:none"
   d="M 147.84766 13.623047 C 147.45877 13.623047 147.15799 13.725043 146.94531 13.931641 C 146.73872 14.138238 146.63672 14.433594 146.63672 14.816406 C 146.63672 15.18099 146.73872 15.468967 146.94531 15.681641 C 147.15799 15.888238 147.45877 15.992188 147.84766 15.992188 C 148.22439 15.992188 148.51606 15.888238 148.72266 15.681641 C 148.93533 15.468967 149.04297 15.18099 149.04297 14.816406 C 149.04297 14.433594 148.93533 14.138238 148.72266 13.931641 C 148.51606 13.725043 148.22439 13.623047 147.84766 13.623047 z M 79.644531 14.050781 C 78.313802 14.050781 77.252821 14.369792 76.462891 15.007812 C 75.67296 15.645833 75.277344 16.520833 75.277344 17.632812 C 75.277344 18.519965 75.527127 19.280165 76.025391 19.912109 C 76.523654 20.544054 77.380425 21.105469 78.595703 21.597656 C 79.774523 22.071615 80.552951 22.481771 80.929688 22.828125 C 81.306424 23.174479 81.494141 23.597439 81.494141 24.095703 C 81.494141 24.648654 81.288194 25.087891 80.875 25.416016 C 80.467882 25.744141 79.831597 25.908203 78.96875 25.908203 C 78.37934 25.908203 77.741319 25.826172 77.054688 25.662109 C 76.374132 25.498047 75.730686 25.273872 75.123047 24.988281 L 75.123047 27.048828 C 76.083116 27.51671 77.317274 27.75 78.824219 27.75 C 80.331163 27.75 81.51237 27.41276 82.369141 26.738281 C 83.225911 26.063802 83.654297 25.134115 83.654297 23.949219 C 83.654297 23.347656 83.548611 22.824436 83.335938 22.380859 C 83.123264 21.937283 82.78776 21.539931 82.332031 21.1875 C 81.876302 20.835069 81.159939 20.455946 80.181641 20.048828 C 79.312717 19.690321 78.711155 19.400391 78.376953 19.181641 C 78.042752 18.962891 77.802083 18.73329 77.65625 18.490234 C 77.510417 18.241102 77.4375 17.942057 77.4375 17.595703 C 77.4375 17.091363 77.619792 16.688585 77.984375 16.384766 C 78.348958 16.07487 78.884983 15.919922 79.589844 15.919922 C 80.519531 15.919922 81.576823 16.167752 82.761719 16.666016 L 83.453125 14.888672 C 82.189236 14.329644 80.920573 14.050781 79.644531 14.050781 z M 51.398438 14.242188 L 51.398438 27.568359 L 53.558594 27.568359 L 53.558594 22.099609 L 58.580078 22.099609 L 58.580078 20.248047 L 53.558594 20.248047 L 53.558594 16.083984 L 58.917969 16.083984 L 58.917969 14.242188 L 51.398438 14.242188 z M 61.351562 14.242188 L 61.351562 27.568359 L 63.328125 27.568359 L 63.328125 20.640625 C 63.328125 19.704861 63.286241 18.671224 63.201172 17.541016 L 63.15625 16.949219 L 63.228516 16.949219 L 69.78125 27.568359 L 72.453125 27.568359 L 72.453125 14.242188 L 70.457031 14.242188 L 70.457031 21.224609 C 70.457031 21.716797 70.47526 22.402127 70.511719 23.283203 C 70.548177 24.158203 70.571832 24.666884 70.583984 24.806641 L 70.529297 24.806641 L 63.994141 14.242188 L 61.351562 14.242188 z M 86.251953 14.242188 L 86.251953 27.568359 L 88.429688 27.568359 L 88.429688 22.582031 L 89.816406 22.582031 C 91.499566 22.582031 92.795573 22.212023 93.707031 21.470703 C 94.61849 20.729384 95.074219 19.662977 95.074219 18.271484 C 95.074219 16.946832 94.658637 15.944227 93.826172 15.263672 C 92.999783 14.583116 91.754774 14.242188 90.089844 14.242188 L 86.251953 14.242188 z M 113.44922 14.242188 L 113.44922 27.568359 L 117.17773 27.568359 C 119.47461 27.568359 121.23372 26.986762 122.45508 25.826172 C 123.67643 24.659505 124.28711 22.976996 124.28711 20.777344 C 124.28711 18.705295 123.69835 17.097439 122.51953 15.955078 C 121.34071 14.812717 119.69097 14.242188 117.57031 14.242188 L 113.44922 14.242188 z M 203.42969 15.244141 L 202.69922 17.376953 L 201.22266 18.162109 L 201.22266 19.109375 L 202.59961 19.109375 L 202.59961 24.541016 C 202.59961 26.679904 203.61502 27.75 205.64453 27.75 C 206.04557 27.75 206.43012 27.713542 206.80078 27.640625 C 207.17752 27.573785 207.48568 27.488064 207.72266 27.384766 L 207.72266 25.771484 C 207.20009 25.935547 206.67687 26.017578 206.1543 26.017578 C 205.73503 26.017578 205.3941 25.897352 205.13281 25.654297 C 204.8776 25.405165 204.75 25.022352 204.75 24.505859 L 204.75 19.109375 L 207.62109 19.109375 L 207.62109 17.486328 L 204.75 17.486328 L 204.75 15.244141 L 203.42969 15.244141 z M 88.429688 16.064453 L 89.943359 16.064453 C 90.933811 16.064453 91.662977 16.254123 92.130859 16.630859 C 92.598741 17.007595 92.832031 17.578125 92.832031 18.34375 C 92.832031 19.170139 92.571398 19.777127 92.048828 20.166016 C 91.526259 20.554905 90.705946 20.75 89.587891 20.75 L 88.429688 20.75 L 88.429688 16.064453 z M 115.62891 16.064453 L 117.51562 16.064453 C 120.49913 16.064453 121.99023 17.659505 121.99023 20.849609 C 121.99023 24.106554 120.38607 25.736328 117.17773 25.736328 L 115.62891 25.736328 L 115.62891 16.064453 z M 130.94141 17.304688 C 129.50738 17.304688 128.37891 17.774957 127.55859 18.716797 C 126.73828 19.658637 126.32812 20.952908 126.32812 22.599609 C 126.32813 24.203776 126.76931 25.465278 127.65039 26.382812 C 128.53754 27.294271 129.76432 27.75 131.33203 27.75 C 132.01866 27.75 132.62934 27.699002 133.16406 27.595703 C 133.69878 27.492405 134.22743 27.315538 134.75 27.066406 L 134.75 25.326172 C 134.16059 25.587457 133.60829 25.775174 133.0918 25.890625 C 132.58138 26 132.02908 26.054688 131.43359 26.054688 C 130.52821 26.054688 129.82639 25.794054 129.32812 25.271484 C 128.82986 24.742839 128.56554 23.988064 128.53516 23.009766 L 135.25195 23.009766 L 135.25195 21.853516 C 135.25195 20.437717 134.86545 19.325738 134.09375 18.517578 C 133.32205 17.709418 132.27214 17.304688 130.94141 17.304688 z M 140.92969 17.304688 C 139.73264 17.304688 138.78472 17.545356 138.08594 18.025391 C 137.39323 18.499349 137.04688 19.16645 137.04688 20.029297 C 137.04688 20.746311 137.25109 21.329644 137.6582 21.779297 C 138.0714 22.22895 138.85894 22.679253 140.01953 23.128906 C 140.61502 23.359809 141.07986 23.565755 141.41406 23.748047 C 141.74826 23.930339 141.98698 24.107205 142.13281 24.277344 C 142.27865 24.447483 142.35156 24.660807 142.35156 24.916016 C 142.35156 25.712023 141.69358 26.109375 140.375 26.109375 C 139.35417 26.109375 138.2513 25.835937 137.06641 25.289062 L 137.06641 27.138672 C 137.88064 27.54579 138.9579 27.75 140.30078 27.75 C 141.63759 27.75 142.6658 27.489366 143.38281 26.966797 C 144.09983 26.438151 144.45703 25.681641 144.45703 24.697266 C 144.45703 24.211155 144.36589 23.79362 144.18359 23.447266 C 144.0013 23.094835 143.72244 22.784939 143.3457 22.517578 C 142.96897 22.250217 142.36372 21.956814 141.53125 21.634766 C 140.5408 21.251953 139.89735 20.951172 139.59961 20.732422 C 139.30794 20.513672 139.16211 20.24566 139.16211 19.929688 C 139.16211 19.28559 139.72721 18.962891 140.85742 18.962891 C 141.59874 18.962891 142.51389 19.189019 143.60156 19.638672 L 144.29297 18.025391 C 143.23568 17.545356 142.11458 17.304688 140.92969 17.304688 z M 155.39453 17.304688 C 154.11849 17.304688 153.13411 17.605469 152.44141 18.207031 C 151.75477 18.808594 151.41211 19.65625 151.41211 20.75 C 151.41211 21.430556 151.57248 22.026693 151.89453 22.537109 C 152.22266 23.04145 152.64931 23.406033 153.17188 23.630859 C 152.7526 23.886068 152.43533 24.143012 152.22266 24.404297 C 152.00998 24.665582 151.9043 24.984592 151.9043 25.361328 C 151.9043 25.659071 151.99544 25.945313 152.17773 26.21875 C 152.3661 26.486111 152.60308 26.681207 152.88867 26.802734 C 152.18381 26.966797 151.63325 27.258464 151.23828 27.677734 C 150.84939 28.103082 150.65625 28.624349 150.65625 29.244141 C 150.65625 30.143446 151.01714 30.836155 151.74023 31.322266 C 152.46332 31.808377 153.5115 32.052734 154.88477 32.052734 C 156.66515 32.052734 158.02691 31.742839 158.96875 31.123047 C 159.91059 30.503255 160.38086 29.620877 160.38086 28.478516 C 160.38086 27.585286 160.09288 26.901693 159.51562 26.427734 C 158.93837 25.953776 158.09245 25.716797 156.98047 25.716797 L 155.22266 25.716797 C 154.6454 25.716797 154.24609 25.660373 154.02734 25.544922 C 153.81467 25.42947 153.70898 25.256293 153.70898 25.025391 C 153.70898 24.642578 153.94054 24.307075 154.40234 24.021484 C 154.66363 24.070095 154.9553 24.095703 155.27734 24.095703 C 156.53516 24.095703 157.52127 23.796658 158.23828 23.201172 C 158.9553 22.605686 159.31445 21.789062 159.31445 20.75 C 159.31445 20.403646 159.26345 20.075521 159.16016 19.765625 C 159.05686 19.455729 158.92556 19.195095 158.76758 18.982422 L 160.49023 18.662109 L 160.49023 17.486328 L 157 17.486328 C 156.84201 17.443793 156.60503 17.405599 156.28906 17.369141 C 155.97917 17.326606 155.68012 17.304688 155.39453 17.304688 z M 167.60938 17.304688 C 166.92882 17.304688 166.30903 17.435981 165.75 17.697266 C 165.19097 17.95855 164.7589 18.328559 164.45508 18.808594 L 164.3457 18.808594 L 164.04492 17.486328 L 162.36719 17.486328 L 162.36719 27.568359 L 164.50977 27.568359 L 164.50977 22.544922 C 164.50977 21.287109 164.7194 20.392144 165.13867 19.857422 C 165.55794 19.3227 166.21962 19.054688 167.125 19.054688 C 167.80556 19.054688 168.30143 19.246094 168.61133 19.628906 C 168.9273 20.011719 169.08594 20.591363 169.08594 21.369141 L 169.08594 27.568359 L 171.23633 27.568359 L 171.23633 20.996094 C 171.23633 18.535156 170.02778 17.304688 167.60938 17.304688 z M 177.46094 17.304688 C 176.26389 17.304688 175.31597 17.545356 174.61719 18.025391 C 173.92448 18.499349 173.57812 19.16645 173.57812 20.029297 C 173.57812 20.746311 173.78234 21.329644 174.18945 21.779297 C 174.60265 22.22895 175.39019 22.679253 176.55078 23.128906 C 177.14627 23.359809 177.61111 23.565755 177.94531 23.748047 C 178.27951 23.930339 178.51823 24.107205 178.66406 24.277344 C 178.8099 24.447483 178.88281 24.660807 178.88281 24.916016 C 178.88281 25.712023 178.22483 26.109375 176.90625 26.109375 C 175.88542 26.109375 174.78255 25.835937 173.59766 25.289062 L 173.59766 27.138672 C 174.41189 27.54579 175.48915 27.75 176.83203 27.75 C 178.16884 27.75 179.19705 27.489366 179.91406 26.966797 C 180.63108 26.438151 180.98828 25.681641 180.98828 24.697266 C 180.98828 24.211155 180.89714 23.79362 180.71484 23.447266 C 180.53255 23.094835 180.25369 22.784939 179.87695 22.517578 C 179.50022 22.250217 178.89497 21.956814 178.0625 21.634766 C 177.07205 21.251953 176.4286 20.951172 176.13086 20.732422 C 175.83919 20.513672 175.69336 20.24566 175.69336 19.929688 C 175.69336 19.28559 176.25846 18.962891 177.38867 18.962891 C 178.12999 18.962891 179.04514 19.189019 180.13281 19.638672 L 180.82422 18.025391 C 179.76693 17.545356 178.64583 17.304688 177.46094 17.304688 z M 196.56641 17.304688 C 195.36936 17.304688 194.42144 17.545356 193.72266 18.025391 C 193.02995 18.499349 192.68359 19.16645 192.68359 20.029297 C 192.68359 20.746311 192.88585 21.329644 193.29297 21.779297 C 193.70616 22.22895 194.49371 22.679253 195.6543 23.128906 C 196.24978 23.359809 196.71463 23.565755 197.04883 23.748047 C 197.38303 23.930339 197.6237 24.107205 197.76953 24.277344 C 197.91536 24.447483 197.98828 24.660807 197.98828 24.916016 C 197.98828 25.712023 197.32834 26.109375 196.00977 26.109375 C 194.98893 26.109375 193.88607 25.835937 192.70117 25.289062 L 192.70117 27.138672 C 193.51541 27.54579 194.59462 27.75 195.9375 27.75 C 197.27431 27.75 198.30056 27.489366 199.01758 26.966797 C 199.73459 26.438151 200.09375 25.681641 200.09375 24.697266 C 200.09375 24.211155 200.0026 23.79362 199.82031 23.447266 C 199.63802 23.094835 199.3572 22.784939 198.98047 22.517578 C 198.60373 22.250217 198.00043 21.956814 197.16797 21.634766 C 196.17752 21.251953 195.53212 20.951172 195.23438 20.732422 C 194.94271 20.513672 194.79688 20.24566 194.79688 19.929688 C 194.79688 19.28559 195.36198 18.962891 196.49219 18.962891 C 197.23351 18.962891 198.14865 19.189019 199.23633 19.638672 L 199.92969 18.025391 C 198.8724 17.545356 197.7513 17.304688 196.56641 17.304688 z M 213.73828 17.304688 C 212.30425 17.304688 211.17578 17.774957 210.35547 18.716797 C 209.53516 19.658637 209.125 20.952908 209.125 22.599609 C 209.125 24.203776 209.56619 25.465278 210.44727 26.382812 C 211.33442 27.294271 212.5612 27.75 214.12891 27.75 C 214.81554 27.75 215.42622 27.699002 215.96094 27.595703 C 216.49566 27.492405 217.02431 27.315538 217.54688 27.066406 L 217.54688 25.326172 C 216.95747 25.587457 216.40516 25.775174 215.88867 25.890625 C 215.37826 26 214.82595 26.054688 214.23047 26.054688 C 213.32509 26.054688 212.62326 25.794054 212.125 25.271484 C 211.62674 24.742839 211.36241 23.988064 211.33203 23.009766 L 218.04883 23.009766 L 218.04883 21.853516 C 218.04883 20.437717 217.66233 19.325738 216.89062 18.517578 C 216.11892 17.709418 215.06901 17.304688 213.73828 17.304688 z M 225.54102 17.304688 C 224.90299 17.304688 224.31597 17.435981 223.78125 17.697266 C 223.2526 17.95855 222.84983 18.328559 222.57031 18.808594 L 222.46094 18.808594 L 222.16016 17.486328 L 220.48242 17.486328 L 220.48242 27.568359 L 222.625 27.568359 L 222.625 22.544922 C 222.625 21.293186 222.81641 20.399957 223.19922 19.865234 C 223.58811 19.324436 224.1951 19.054688 225.02148 19.054688 C 225.64128 19.054688 226.09701 19.246094 226.38867 19.628906 C 226.68034 20.005642 226.82617 20.579861 226.82617 21.351562 L 226.82617 27.568359 L 228.97656 27.568359 L 228.97656 22.226562 C 228.97656 21.151042 229.16797 20.354384 229.55078 19.837891 C 229.93967 19.315321 230.55035 19.054688 231.38281 19.054688 C 232.0026 19.054688 232.45833 19.246094 232.75 19.628906 C 233.04774 20.005642 233.19727 20.579861 233.19727 21.351562 L 233.19727 27.568359 L 235.33984 27.568359 L 235.33984 20.996094 C 235.33984 19.750434 235.06272 18.824436 234.50977 18.216797 C 233.96289 17.609158 233.08789 17.304688 231.88477 17.304688 C 231.18598 17.304688 230.56619 17.445095 230.02539 17.724609 C 229.48459 18.004123 229.06532 18.392361 228.76758 18.890625 L 228.62109 18.890625 C 228.11675 17.833333 227.09049 17.304688 225.54102 17.304688 z M 146.76367 17.486328 L 146.76367 27.568359 L 148.90625 27.568359 L 148.90625 17.486328 L 146.76367 17.486328 z M 181.76367 17.486328 L 185.81055 27.568359 L 185.4375 28.515625 C 185.01823 29.712674 184.2908 30.310547 183.25781 30.310547 C 182.84462 30.310547 182.4783 30.274089 182.15625 30.201172 L 182.15625 31.896484 C 182.6059 31.999783 183.06706 32.052734 183.54102 32.052734 C 185.37001 32.052734 186.67708 31.004557 187.46094 28.908203 L 191.77148 17.486328 L 189.45703 17.486328 C 188.05946 21.539279 187.28646 23.807075 187.14062 24.287109 C 186.99479 24.761068 186.89453 25.163845 186.83984 25.498047 L 186.76758 25.498047 C 186.66428 24.781033 186.45833 24.015408 186.14844 23.201172 L 184.09766 17.486328 L 181.76367 17.486328 z M 155.37695 18.681641 C 156.00282 18.681641 156.46766 18.860243 156.77148 19.21875 C 157.08138 19.571181 157.23633 20.076172 157.23633 20.732422 C 157.23633 22.057075 156.61654 22.71875 155.37695 22.71875 C 154.76931 22.71875 154.30078 22.549262 153.97266 22.208984 C 153.65061 21.868707 153.49023 21.381944 153.49023 20.75 C 153.49023 20.075521 153.64887 19.561415 153.96484 19.208984 C 154.28689 18.856554 154.75716 18.681641 155.37695 18.681641 z M 130.94141 18.927734 C 131.62196 18.927734 132.15603 19.142795 132.54492 19.574219 C 132.93381 19.999566 133.13433 20.628472 133.14648 21.460938 L 128.57031 21.460938 C 128.64931 20.634549 128.89366 20.005642 129.30078 19.574219 C 129.71398 19.142795 130.26085 18.927734 130.94141 18.927734 z M 213.73828 18.927734 C 214.41884 18.927734 214.95291 19.142795 215.3418 19.574219 C 215.73069 19.999566 215.93121 20.628472 215.94336 21.460938 L 211.36719 21.460938 C 211.44618 20.634549 211.69054 20.005642 212.09766 19.574219 C 212.51085 19.142795 213.05773 18.927734 213.73828 18.927734 z M 101.48242 21.652344 L 101.48242 23.474609 L 106.16797 23.474609 L 106.16797 21.652344 L 101.48242 21.652344 z M 154.57422 27.53125 L 156.19727 27.53125 C 157.04796 27.53125 157.6276 27.622396 157.9375 27.804688 C 158.25347 27.993056 158.41211 28.306641 158.41211 28.744141 C 158.41211 29.297092 158.12587 29.740017 157.55469 30.074219 C 156.98351 30.40842 156.11589 30.576172 154.94922 30.576172 C 154.19575 30.576172 153.60872 30.450304 153.18945 30.201172 C 152.77626 29.95204 152.57031 29.596571 152.57031 29.134766 C 152.57031 28.642578 152.74891 28.250651 153.10742 27.958984 C 153.47201 27.673394 153.9605 27.53125 154.57422 27.53125 z "
   id="text928" />
</svg>